<?xml version="1.0" encoding="UTF-8" standalone="no"?>
<svg
   xmlns:dc="http://purl.org/dc/elements/1.1/"
   xmlns:cc="http://creativecommons.org/ns#"
   xmlns:rdf="http://www.w3.org/1999/02/22-rdf-syntax-ns#"
   xmlns:svg="http://www.w3.org/2000/svg"
   xmlns="http://www.w3.org/2000/svg"
   xmlns:sodipodi="http://sodipodi.sourceforge.net/DTD/sodipodi-0.dtd"
   xmlns:inkscape="http://www.inkscape.org/namespaces/inkscape"
   sodipodi:docname="logo-texto-blanco.svg"
   inkscape:version="1.0 (4035a4fb49, 2020-05-01)"
   id="svg8"
   version="1.1"
   viewBox="0 0 63.134503 12.03429"
   height="12.03429mm"
   width="63.134502mm">
  <defs
     id="defs2" />
  <sodipodi:namedview
     inkscape:snap-global="false"
     inkscape:snap-page="true"
     inkscape:window-maximized="1"
     inkscape:window-y="-8"
     inkscape:window-x="-8"
     inkscape:window-height="1017"
     inkscape:window-width="1920"
     fit-margin-bottom="0"
     fit-margin-right="0"
     fit-margin-left="0"
     fit-margin-top="0"
     showgrid="false"
     inkscape:document-rotation="0"
     inkscape:current-layer="layer2"
     inkscape:document-units="mm"
     inkscape:cy="9.4742126"
     inkscape:cx="120.97996"
     inkscape:zoom="3.8551137"
     inkscape:pageshadow="2"
     inkscape:pageopacity="0.0"
     borderopacity="1.0"
     bordercolor="#666666"
     pagecolor="#ffffff"
     id="base" />
  <metadata
     id="metadata5">
    <rdf:RDF>
      <cc:Work
         rdf:about="">
        <dc:format>image/svg+xml</dc:format>
        <dc:type
           rdf:resource="http://purl.org/dc/dcmitype/StillImage" />
        <dc:title></dc:title>
      </cc:Work>
    </rdf:RDF>
  </metadata>
  <g
     transform="translate(-1.230957e-6,1.1667413)"
     style="display:none"
     inkscape:label="fondo"
     id="layer2"
     inkscape:groupmode="layer">
    <rect
       y="-1.1667413"
       x="1.230957e-06"
       height="12.03429"
       width="63.134502"
       id="rect876"
       style="opacity:1;fill:#000000;fill-opacity:1;stroke:none;stroke-width:1.29852" />
  </g>
  <g
     transform="translate(-69.504525,-77.543205)"
     id="layer1"
     inkscape:groupmode="layer"
     inkscape:label="logo">
    <g
       style="font-style:normal;font-variant:normal;font-weight:normal;font-stretch:normal;font-size:8.46667px;line-height:1.25;font-family:'Michella Garden';-inkscape-font-specification:'Michella Garden';letter-spacing:0px;word-spacing:0px;fill:#ffffff;fill-opacity:1;stroke:none;stroke-width:0.264583"
       id="text12"
       aria-label="La historia de la concha">
      <path
         id="path837"
         style="font-style:normal;font-variant:normal;font-weight:normal;font-stretch:normal;font-family:'Michella Garden';-inkscape-font-specification:'Michella Garden';fill:#ffffff;fill-opacity:1;stroke:none;stroke-width:0.264583"
         d="m 73.936285,85.960678 c -0.457201,0 -0.999068,-0.160867 -1.473201,-0.313267 -0.0085,0 -0.0254,-0.0085 -0.03387,-0.0085 0.245534,-0.440267 0.381,-1.109134 0.381,-1.921934 0,-0.220133 -0.0085,-0.643467 -0.01693,-0.956734 0,-0.186266 -0.0085,-0.338667 -0.0085,-0.381 0,-0.160867 0.0085,-0.651933 0.03387,-0.753534 0.01693,-0.08467 -0.03387,-0.1524 -0.135467,-0.186266 -0.127,-0.04233 -0.347133,-0.0254 -0.423333,0.135466 -0.05927,0.135467 -0.09313,0.330201 -0.09313,0.651934 0,0.04233 0,0.2032 0.0085,0.414867 0,0.381 0.0085,0.9652 0.0085,1.2192 0,0.762001 -0.1016,1.295401 -0.245534,1.634068 -0.135466,-0.03387 -0.262466,-0.0508 -0.364066,-0.0508 -0.338667,0 -0.491067,0.2032 -0.491067,0.4064 0,0.287867 0.254,0.389467 0.474133,0.389467 0.254,0 0.4826,-0.110067 0.668867,-0.321734 0.118534,0.04233 0.237067,0.09313 0.347134,0.1524 0.364066,0.160867 0.702733,0.313267 0.956733,0.313267 0.296334,0 0.516467,-0.194733 0.516467,-0.3302 0,-0.04233 -0.0254,-0.09313 -0.110066,-0.09313 z m -2.523068,-0.110067 c 0,-0.0762 0.06773,-0.118534 0.127,-0.118534 0.0762,0 0.160867,0.0085 0.254,0.03387 -0.08467,0.118534 -0.186267,0.169334 -0.2794,0.169334 -0.06773,0 -0.1016,-0.04233 -0.1016,-0.08467 z" />
      <path
         id="path839"
         style="font-style:normal;font-variant:normal;font-weight:normal;font-stretch:normal;font-family:'Michella Garden';-inkscape-font-specification:'Michella Garden';fill:#ffffff;fill-opacity:1;stroke:none;stroke-width:0.264583"
         d="m 76.980582,83.79321 c -0.05927,-0.01693 -0.143934,0.0254 -0.1524,0.1016 -0.03387,0.1778 -0.135467,0.618067 -0.279401,1.007534 -0.1524,0.4064 -0.313266,0.626533 -0.465666,0.626533 -0.03387,0 -0.05927,-0.01693 -0.08467,-0.04233 -0.237067,-0.254 -0.1524,-1.447801 -0.1016,-2.023534 0.0085,-0.1778 0.01693,-0.3048 0.01693,-0.3556 -0.0085,-0.169334 -0.194733,-0.254 -0.3556,-0.254 -0.135467,0.0085 -0.2286,0.06773 -0.2286,0.160866 0,0.01693 0,0.04233 -0.0085,0.08467 -0.09313,-0.127 -0.254,-0.245533 -0.508,-0.245533 -0.254,0 -0.567267,0.186266 -0.8128,0.474133 -0.296334,0.338667 -0.448734,0.762 -0.448734,1.185334 0,0.423333 0.08467,0.770467 0.245534,1.007534 0.1524,0.2032 0.364066,0.321733 0.592667,0.321733 0.3048,0 0.5842,-0.321733 0.821267,-0.948267 0.0085,-0.04233 0.0254,-0.08467 0.04233,-0.127 0.04233,0.381 0.143933,0.668867 0.3048,0.846667 0.135467,0.1524 0.313267,0.2286 0.524934,0.2286 0.2794,0 0.524933,-0.296333 0.745067,-0.889 0.0762,-0.220134 0.135466,-0.440267 0.1778,-0.626534 0.04233,-0.1778 0.06773,-0.313267 0.0762,-0.364067 0.01693,-0.1016 -0.04233,-0.160866 -0.1016,-0.169333 z m -2.006601,0.745067 c -0.2794,0.8128 -0.4572,0.905934 -0.516467,0.905934 -0.01693,-0.0085 -0.0762,-0.08467 -0.143933,-0.2794 -0.05927,-0.186267 -0.08467,-0.406401 -0.08467,-0.592667 0,-0.372534 0.08467,-0.719667 0.237067,-0.990601 0.127,-0.220133 0.296333,-0.364067 0.423333,-0.364067 0.2032,0 0.2794,0.160867 0.347134,0.313267 0.0085,0.0085 0.01693,0.0254 0.01693,0.03387 0.0085,0 0.0085,0.0085 0.0085,0.0085 -0.04233,0.160866 -0.1524,0.567267 -0.287867,0.9652 z" />
      <path
         id="path841"
         style="font-style:normal;font-variant:normal;font-weight:normal;font-stretch:normal;font-family:'Michella Garden';-inkscape-font-specification:'Michella Garden';fill:#ffffff;fill-opacity:1;stroke:none;stroke-width:0.264583"
         d="m 82.376629,83.81861 c -0.03387,-0.03387 -0.0762,-0.0508 -0.127,-0.04233 -0.0508,0.0085 -0.09313,0.05927 -0.110067,0.118533 -0.0085,0.03387 -0.0254,0.09313 -0.04233,0.186267 -0.05927,0.254 -0.169333,0.7366 -0.321733,1.143 -0.1778,0.474134 -0.372533,0.719667 -0.550334,0.719667 -0.0254,0 -0.0508,-0.0085 -0.06773,-0.0254 -0.118533,-0.127 -0.08467,-0.643467 -0.05927,-1.143 0.04233,-0.677334 0.09313,-1.456267 -0.186266,-1.752601 -0.0762,-0.0762 -0.1778,-0.118533 -0.287867,-0.118533 -0.321734,0 -0.635,0.287866 -0.889,0.804333 -0.135467,0.262467 -0.237067,0.567267 -0.296334,0.863601 -0.01693,-0.381 -0.0254,-0.787401 -0.01693,-1.193801 0.1016,-0.4318 0.2794,-1.3462 0.2794,-1.828801 0,-0.491066 -0.05927,-0.8128 -0.321734,-0.8128 -0.211666,0 -0.364066,0.3048 -0.465666,0.931334 -0.0762,0.491067 -0.101601,1.0922 -0.101601,1.490134 0,0.635 0.06773,1.566334 0.203201,2.616201 v 0.0254 c 0.01693,0.110067 0.169333,0.186267 0.3048,0.186267 0.01693,0 0.03387,0 0.04233,-0.0085 0.118533,-0.0085 0.186267,-0.08467 0.1778,-0.186267 0,-0.524933 0.110067,-1.126067 0.313267,-1.642534 0.186267,-0.491067 0.381,-0.7366 0.4826,-0.7366 0.03387,0 0.05927,0.0085 0.0762,0.0254 0.118534,0.118533 0.09313,0.516467 0.06773,0.9398 -0.03387,0.626534 -0.06773,1.337734 0.254001,1.676401 0.118533,0.127 0.2794,0.186267 0.4826,0.186267 0.313267,0 0.592667,-0.3048 0.829733,-0.922867 0.186267,-0.474134 0.296334,-0.999067 0.338667,-1.227668 0.0085,-0.0508 0.01693,-0.09313 0.0254,-0.1016 0.01693,-0.05927 0.0085,-0.127 -0.03387,-0.169333 z" />
      <path
         id="path843"
         style="font-style:normal;font-variant:normal;font-weight:normal;font-stretch:normal;font-family:'Michella Garden';-inkscape-font-specification:'Michella Garden';fill:#ffffff;fill-opacity:1;stroke:none;stroke-width:0.264583"
         d="m 83.881314,83.79321 c -0.06773,-0.01693 -0.1524,0.0254 -0.169333,0.1016 -0.04233,0.220133 -0.135467,0.651934 -0.262467,1.007534 -0.1524,0.4064 -0.313267,0.626533 -0.465667,0.626533 -0.0254,0 -0.0508,-0.0085 -0.0762,-0.03387 -0.05927,-0.06773 -0.135467,-0.245534 -0.160867,-0.728134 -0.01693,-0.338667 0,-0.7112 0.0085,-0.9652 0.0085,-0.135467 0.0085,-0.2286 0.0085,-0.2794 -0.0085,-0.169334 -0.211667,-0.254001 -0.397934,-0.245534 -0.1524,0 -0.245533,0.06773 -0.245533,0.160867 0,0.01693 -0.0085,0.0508 -0.0085,0.1016 -0.03387,0.389467 -0.127,1.574801 0.338667,2.074334 0.135467,0.1524 0.313267,0.2286 0.5334,0.2286 0.2794,0 0.524934,-0.296333 0.7366,-0.889 0.08467,-0.220134 0.143934,-0.440267 0.186267,-0.626534 0.04233,-0.1778 0.06773,-0.313267 0.0762,-0.364067 0.01693,-0.1016 -0.04233,-0.160866 -0.1016,-0.169333 z M 82.34038,83.124343 c 0.03387,0.01693 0.0762,0.0254 0.127,0.0254 0.06773,0 0.143934,-0.01693 0.194734,-0.06773 0.110066,-0.110067 0.118533,-0.254 0.08467,-0.3302 -0.0508,-0.110067 -0.143933,-0.169334 -0.254,-0.169334 -0.0508,0 -0.110067,0.01693 -0.1524,0.0508 -0.04233,0.0254 -0.0762,0.06773 -0.1016,0.118534 -0.04233,0.110066 -0.01693,0.287866 0.1016,0.372533 z" />
      <path
         id="path845"
         style="font-style:normal;font-variant:normal;font-weight:normal;font-stretch:normal;font-family:'Michella Garden';-inkscape-font-specification:'Michella Garden';fill:#ffffff;fill-opacity:1;stroke:none;stroke-width:0.264583"
         d="m 85.909479,83.81861 c -0.0508,-0.04233 -0.143933,-0.04233 -0.262467,0.06773 -0.0254,0.0254 -0.08467,0.0762 -0.160866,0.135467 -0.177801,0.1524 -0.474134,0.397934 -0.736601,0.6604 -0.03387,-0.0508 -0.0762,-0.1016 -0.110066,-0.160866 -0.245534,-0.3556 -0.499534,-0.719667 -0.499534,-1.049867 0,-0.237067 0.135467,-0.406401 0.313267,-0.406401 0.1524,0 0.237067,0.1016 0.313267,0.194734 0.05927,0.08467 0.127,0.08467 0.1778,0.0508 0.0254,-0.01693 0.0508,-0.05927 0.0508,-0.1016 0,-0.0254 -0.0085,-0.05927 -0.0254,-0.09313 -0.127,-0.2032 -0.3048,-0.4064 -0.635001,-0.4064 -0.2032,0 -0.397933,0.05927 -0.541866,0.169334 -0.177801,0.127 -0.262467,0.321733 -0.262467,0.5588 0,0.423333 0.287867,0.8128 0.567267,1.1938 0.110066,0.1524 0.220133,0.3048 0.313266,0.448734 -0.194733,0.254 -0.287866,0.4826 -0.287866,0.668867 0,0.321733 0.211666,0.491067 0.414867,0.491067 0.211666,0 0.5588,-0.347134 0.5588,-0.753534 0,-0.1778 -0.0762,-0.3556 -0.186267,-0.550334 0.296333,-0.321733 0.6604,-0.626533 0.855134,-0.7874 0.118533,-0.1016 0.160866,-0.127 0.169333,-0.1524 0.04233,-0.05927 0.0254,-0.135467 -0.0254,-0.177801 z m -1.3716,2.142068 c -0.05927,0 -0.08467,-0.118534 -0.08467,-0.211667 0,-0.110067 0.04233,-0.2286 0.110067,-0.3556 0.03387,0.1016 0.0508,0.194733 0.0508,0.287866 0,0.194734 -0.03387,0.279401 -0.0762,0.279401 z" />
      <path
         id="path847"
         style="font-style:normal;font-variant:normal;font-weight:normal;font-stretch:normal;font-family:'Michella Garden';-inkscape-font-specification:'Michella Garden';fill:#ffffff;fill-opacity:1;stroke:none;stroke-width:0.264583"
         d="m 86.378718,82.531676 c 0.169333,0.01693 0.313266,0.03387 0.423333,0.03387 0.313267,0 0.5588,-0.05927 0.728134,-0.186267 0.05927,-0.0508 0.0762,-0.135467 0.0254,-0.194733 -0.04233,-0.05927 -0.127,-0.0762 -0.186267,-0.0254 -0.127,0.08467 -0.313267,0.135466 -0.567267,0.135466 -0.09313,0 -0.220133,-0.01693 -0.372533,-0.03387 0.03387,-0.254 0.05927,-0.508 0.05927,-0.711201 v -0.0254 c 0,-0.135466 0,-0.321733 -0.03387,-0.4826 -0.04233,-0.2032 -0.143934,-0.3048 -0.2794,-0.3048 -0.262467,0 -0.457201,0.541867 -0.533401,1.405467 -0.2032,-0.03387 -0.804333,-0.08467 -0.9398,-0.08467 -0.364067,0 -0.6604,0.04233 -0.829734,0.2794 -0.0508,0.05927 -0.03387,0.143933 0.0254,0.194733 0.0254,0.01693 0.0508,0.0254 0.08467,0.0254 0.04233,0 0.08467,-0.0254 0.110067,-0.05927 0.0762,-0.101601 0.254,-0.160867 0.6096,-0.160867 0.127,0 0.719667,0.0508 0.9144,0.0762 -0.0085,0.2032 -0.01693,0.414867 -0.01693,0.643467 0,1.151467 0.194733,1.862667 0.3556,2.252134 0.186267,0.474133 0.448734,0.753534 0.702734,0.753534 0.194733,0 0.397933,-0.330201 0.618067,-1.016001 0.160866,-0.491067 0.270933,-1.024467 0.287866,-1.126067 0.01693,-0.0762 -0.0254,-0.143933 -0.1016,-0.1524 -0.06773,-0.01693 -0.1524,0.0254 -0.1778,0.127 -0.110066,0.4572 -0.237066,0.905934 -0.372533,1.278467 -0.143933,0.397934 -0.237067,0.541867 -0.270934,0.567267 -0.0085,0 -0.03387,-0.01693 -0.0508,-0.03387 -0.135466,-0.1524 -0.245533,-0.702733 -0.3048,-1.464733 -0.0254,-0.330201 -0.03387,-0.685801 -0.03387,-1.032934 0.0085,-0.0254 0.01693,-0.0508 0.01693,-0.08467 0.03387,-0.169333 0.0762,-0.381 0.110067,-0.592667 z" />
      <path
         id="path849"
         style="font-style:normal;font-variant:normal;font-weight:normal;font-stretch:normal;font-family:'Michella Garden';-inkscape-font-specification:'Michella Garden';fill:#ffffff;fill-opacity:1;stroke:none;stroke-width:0.264583"
         d="m 92.833364,83.784743 c -0.06773,-0.01693 -0.160867,0.01693 -0.1778,0.110067 -0.03387,0.135467 -0.1524,0.592667 -0.321734,1.024467 -0.2794,0.719667 -0.465667,0.829734 -0.5588,0.829734 -0.135467,0 -0.194734,-0.160867 -0.2032,-0.541867 0,-0.2032 0.01693,-0.423334 0.0254,-0.6604 0.01693,-0.3556 0.04233,-0.719667 0.0085,-0.999067 -0.04233,-0.338667 -0.143933,-0.524934 -0.3302,-0.567267 -0.186266,-0.03387 -0.397933,-0.05927 -0.601133,-0.08467 -0.143934,-0.01693 -0.2794,-0.03387 -0.414867,-0.0508 0,-0.2794 -0.0508,-0.524934 -0.169333,-0.668867 -0.06773,-0.08467 -0.160867,-0.127 -0.270934,-0.127 -0.2286,0 -0.414867,0.2286 -0.414867,0.499534 0,0.237066 0.186267,0.423333 0.474134,0.4826 0.0085,0 0.0508,0.0085 0.110067,0.01693 -0.06773,0.7366 -0.499534,1.481667 -0.863601,1.625601 0.05927,-0.262467 0.08467,-0.516467 0.08467,-0.702734 0,-0.186267 -0.0508,-0.474133 -0.186267,-0.7112 -0.1524,-0.262467 -0.364067,-0.4064 -0.626533,-0.4064 -0.177801,0 -0.347134,0.09313 -0.465667,0.254 -0.0508,0.06773 -0.09313,0.143933 -0.118534,0.2286 -0.0085,0 -0.0085,0 -0.0085,0 -0.160867,-0.05927 -0.406401,0.03387 -0.448734,0.110067 -0.135467,0.254 -0.220133,0.6096 -0.220133,0.973667 -0.0085,0.381 0.06773,0.7366 0.220133,0.9906 0.169334,0.2794 0.414867,0.4318 0.719667,0.4318 0.381,0 0.702734,-0.245533 0.905934,-0.728133 0.01693,-0.03387 0.0254,-0.05927 0.04233,-0.1016 0.448734,-0.127001 1.041401,-0.668867 1.219201,-1.921935 0.08467,0.01693 0.160866,0.0254 0.1778,0.0254 0.220133,0.03387 0.4318,0.06773 0.491067,0.08467 0.1524,0.04233 0.127,0.321734 0.09313,0.829734 -0.01693,0.3048 -0.04233,0.677333 -0.04233,1.143 0,0.516467 0.338666,0.889001 0.8128,0.889001 0.287867,0 0.567267,-0.355601 0.829734,-1.049867 0.194733,-0.516467 0.313266,-1.041401 0.321733,-1.100668 0.01693,-0.05927 -0.0254,-0.118533 -0.09313,-0.127 z m -4.631269,1.684868 c -0.0762,0 -0.143933,-0.03387 -0.194733,-0.09313 -0.1524,-0.194733 -0.186267,-0.626533 -0.160867,-1.032933 0.04233,0.09313 0.08467,0.1778 0.143933,0.262466 0.127,0.1778 0.347134,0.381001 0.702734,0.406401 -0.135467,0.296333 -0.313267,0.4572 -0.491067,0.4572 z m 0.592667,-0.728134 c 0,0 -0.0085,0 -0.0085,0 -0.508,0 -0.745067,-0.550333 -0.745067,-0.9144 0,-0.440267 0.2032,-0.685801 0.389467,-0.685801 0.194734,0 0.465667,0.330201 0.465667,0.863601 0,0.254 -0.03387,0.508 -0.1016,0.7366 z m 0.889,-2.192867 c 0,-0.101601 0.05927,-0.228601 0.135467,-0.228601 0.03387,0 0.0508,0.01693 0.0762,0.04233 0.05927,0.0762 0.09313,0.237067 0.1016,0.423333 -0.186267,-0.0508 -0.313267,-0.118533 -0.313267,-0.237066 z" />
      <path
         id="path851"
         style="font-style:normal;font-variant:normal;font-weight:normal;font-stretch:normal;font-family:'Michella Garden';-inkscape-font-specification:'Michella Garden';fill:#ffffff;fill-opacity:1;stroke:none;stroke-width:0.264583"
         d="m 94.398507,83.79321 c -0.06773,-0.01693 -0.1524,0.0254 -0.169334,0.1016 -0.04233,0.220133 -0.135466,0.651934 -0.262466,1.007534 -0.1524,0.4064 -0.313267,0.626533 -0.465667,0.626533 -0.0254,0 -0.0508,-0.0085 -0.0762,-0.03387 -0.05927,-0.06773 -0.135467,-0.245534 -0.160867,-0.728134 -0.01693,-0.338667 0,-0.7112 0.0085,-0.9652 0.0085,-0.135467 0.0085,-0.2286 0.0085,-0.2794 -0.0085,-0.169334 -0.211666,-0.254001 -0.397933,-0.245534 -0.1524,0 -0.245533,0.06773 -0.245533,0.160867 0,0.01693 -0.0085,0.0508 -0.0085,0.1016 -0.03387,0.389467 -0.127,1.574801 0.338667,2.074334 0.135466,0.1524 0.313266,0.2286 0.5334,0.2286 0.2794,0 0.524933,-0.296333 0.7366,-0.889 0.08467,-0.220134 0.143934,-0.440267 0.186267,-0.626534 0.04233,-0.1778 0.06773,-0.313267 0.0762,-0.364067 0.01693,-0.1016 -0.04233,-0.160866 -0.1016,-0.169333 z m -1.540934,-0.668867 c 0.03387,0.01693 0.0762,0.0254 0.127,0.0254 0.06773,0 0.143933,-0.01693 0.194733,-0.06773 0.110067,-0.110067 0.118534,-0.254 0.08467,-0.3302 -0.0508,-0.110067 -0.143933,-0.169334 -0.254,-0.169334 -0.0508,0 -0.110067,0.01693 -0.1524,0.0508 -0.04233,0.0254 -0.0762,0.06773 -0.1016,0.118534 -0.04233,0.110066 -0.01693,0.287866 0.1016,0.372533 z" />
      <path
         id="path853"
         style="font-style:normal;font-variant:normal;font-weight:normal;font-stretch:normal;font-family:'Michella Garden';-inkscape-font-specification:'Michella Garden';fill:#ffffff;fill-opacity:1;stroke:none;stroke-width:0.264583"
         d="m 97.51887,83.79321 c -0.05927,-0.01693 -0.143933,0.0254 -0.1524,0.1016 -0.03387,0.1778 -0.135466,0.618067 -0.2794,1.007534 -0.1524,0.4064 -0.313267,0.626533 -0.465667,0.626533 -0.03387,0 -0.05927,-0.01693 -0.08467,-0.04233 -0.237067,-0.254 -0.1524,-1.447801 -0.1016,-2.023534 0.0085,-0.1778 0.01693,-0.3048 0.01693,-0.3556 -0.0085,-0.169334 -0.194733,-0.254 -0.3556,-0.254 -0.135467,0.0085 -0.2286,0.06773 -0.2286,0.160866 0,0.01693 0,0.04233 -0.0085,0.08467 -0.09313,-0.127 -0.254,-0.245533 -0.508,-0.245533 -0.254,0 -0.567267,0.186266 -0.8128,0.474133 -0.296334,0.338667 -0.448734,0.762 -0.448734,1.185334 0,0.423333 0.08467,0.770467 0.245533,1.007534 0.152401,0.2032 0.364067,0.321733 0.592667,0.321733 0.304801,0 0.584201,-0.321733 0.821267,-0.948267 0.0085,-0.04233 0.0254,-0.08467 0.04233,-0.127 0.04233,0.381 0.143933,0.668867 0.3048,0.846667 0.135467,0.1524 0.313267,0.2286 0.524933,0.2286 0.279401,0 0.524934,-0.296333 0.745067,-0.889 0.0762,-0.220134 0.135467,-0.440267 0.1778,-0.626534 0.04233,-0.1778 0.06773,-0.313267 0.0762,-0.364067 0.01693,-0.1016 -0.04233,-0.160866 -0.1016,-0.169333 z m -2.0066,0.745067 c -0.2794,0.8128 -0.457201,0.905934 -0.516467,0.905934 -0.01693,-0.0085 -0.0762,-0.08467 -0.143934,-0.2794 -0.05927,-0.186267 -0.08467,-0.406401 -0.08467,-0.592667 0,-0.372534 0.08467,-0.719667 0.237066,-0.990601 0.127,-0.220133 0.296334,-0.364067 0.423334,-0.364067 0.2032,0 0.2794,0.160867 0.347133,0.313267 0.0085,0.0085 0.01693,0.0254 0.01693,0.03387 0.0085,0 0.0085,0.0085 0.0085,0.0085 -0.04233,0.160866 -0.1524,0.567267 -0.287866,0.9652 z" />
      <path
         id="path855"
         style="font-style:normal;font-variant:normal;font-weight:normal;font-stretch:normal;font-family:'Michella Garden';-inkscape-font-specification:'Michella Garden';fill:#ffffff;fill-opacity:1;stroke:none;stroke-width:0.264583"
         d="m 102.69479,83.79321 c -0.0593,-0.01693 -0.13547,0.0254 -0.1524,0.1016 -0.008,0.0254 -0.0169,0.05927 -0.0169,0.08467 -0.0508,0.270933 -0.1524,0.770467 -0.2794,1.1938 -0.2032,0.660401 -0.36407,0.753534 -0.44873,0.753534 0,0 -0.0169,0 -0.0423,-0.0254 -0.127,-0.160867 -0.19473,-0.846667 -0.1778,-1.888068 0.008,-0.220133 0.008,-0.448733 0.0254,-0.668866 0.11007,-0.465667 0.2794,-1.312334 0.2794,-1.794935 0,-0.321733 -0.0339,-0.541866 -0.0931,-0.668866 -0.0677,-0.135467 -0.16087,-0.143934 -0.2286,-0.143934 -0.21167,0 -0.36407,0.313267 -0.46567,0.965201 -0.0762,0.4826 -0.1016,1.0414 -0.1016,1.2954 0,0.0085 0,0.0254 0,0.04233 -0.1016,-0.1016 -0.24553,-0.186266 -0.46566,-0.186266 -0.254,0 -0.567269,0.186266 -0.812803,0.474133 -0.296333,0.338667 -0.448733,0.762 -0.448733,1.185334 0,0.423333 0.08467,0.770467 0.245533,1.007534 0.1524,0.2032 0.364067,0.321733 0.592663,0.321733 0.3048,0 0.5842,-0.321733 0.82127,-0.948267 0.0339,-0.08467 0.0593,-0.1778 0.0931,-0.270933 0.0677,0.7366 0.21167,1.236134 0.4318,1.464734 0.1016,0.1016 0.22014,0.1524 0.34714,0.1524 0.2794,0 0.52493,-0.364067 0.74507,-1.092201 0.1524,-0.5334 0.23706,-1.083734 0.254,-1.185334 0.0169,-0.1016 -0.0339,-0.160866 -0.1016,-0.169333 z m -2.00661,0.745067 c -0.2794,0.8128 -0.44873,0.905934 -0.51646,0.905934 -0.0169,-0.0085 -0.0762,-0.08467 -0.14394,-0.2794 -0.0508,-0.186267 -0.08466,-0.406401 -0.08466,-0.592667 0,-0.372534 0.08466,-0.719667 0.23706,-0.990601 0.127,-0.220133 0.29634,-0.364067 0.42334,-0.364067 0.2032,0 0.2794,0.160867 0.34713,0.313267 0.008,0.0085 0.0169,0.0254 0.0169,0.03387 0.008,0 0.008,0.0085 0.008,0.0085 -0.0423,0.160866 -0.1524,0.567267 -0.28787,0.9652 z" />
      <path
         id="path857"
         style="font-style:normal;font-variant:normal;font-weight:normal;font-stretch:normal;font-family:'Michella Garden';-inkscape-font-specification:'Michella Garden';fill:#ffffff;fill-opacity:1;stroke:none;stroke-width:0.264583"
         d="m 104.73684,83.827077 c -0.0339,-0.03387 -0.0847,-0.0508 -0.13547,-0.04233 -0.0508,0.01693 -0.0847,0.0508 -0.1016,0.110067 -0.0169,0.0508 -0.16933,0.474134 -0.37253,0.880534 -0.33867,0.694267 -0.5334,0.762 -0.60113,0.762 -0.0762,0 -0.2032,-0.1016 -0.31327,-0.338667 -0.11853,-0.254 -0.18627,-0.575733 -0.18627,-0.905933 0,-0.05927 0,-0.110067 0.008,-0.160867 0,0 0,0 0,0 0.008,-0.0085 0.0169,-0.0085 0.0254,-0.0085 0.64347,-0.1524 0.77893,-0.524933 0.77893,-0.821267 0,-0.135467 -0.0508,-0.262467 -0.16086,-0.3556 -0.1016,-0.08467 -0.23707,-0.135467 -0.381,-0.135467 -0.26247,0 -0.49107,0.135467 -0.66041,0.397934 -0.1778,0.262467 -0.26246,0.643467 -0.26246,1.083734 0,1.0668 0.66887,1.5494 1.143,1.5494 0.254,0 0.52493,-0.262467 0.79587,-0.778933 0.23706,-0.448734 0.39793,-0.948268 0.44873,-1.092201 0.0169,-0.05927 0.008,-0.110067 -0.0254,-0.143933 z m -1.55787,-0.364067 c 0.0847,-0.211667 0.16934,-0.296334 0.19474,-0.3048 0.0339,0.0085 0.0423,0.118533 0.0423,0.1524 0,0.321733 -0.19473,0.465667 -0.34713,0.524933 0.0339,-0.160866 0.0677,-0.2794 0.11006,-0.372533 z" />
      <path
         id="path859"
         style="font-style:normal;font-variant:normal;font-weight:normal;font-stretch:normal;font-family:'Michella Garden';-inkscape-font-specification:'Michella Garden';fill:#ffffff;fill-opacity:1;stroke:none;stroke-width:0.264583"
         d="m 108.37341,83.76781 c -0.0677,-0.01693 -0.1524,0.0254 -0.1778,0.127 -0.11007,0.4572 -0.24554,0.905934 -0.381,1.278467 -0.14394,0.397934 -0.2286,0.541867 -0.26247,0.567267 -0.0169,0 -0.0339,-0.01693 -0.0508,-0.03387 -0.13547,-0.1524 -0.254,-0.702733 -0.3048,-1.464733 -0.0254,-0.330201 -0.0339,-0.685801 -0.0339,-1.032934 0,-0.0254 0.008,-0.0508 0.0169,-0.08467 0.0847,-0.440267 0.22013,-1.1176 0.22013,-1.574801 v -0.0254 c 0,-0.135466 0,-0.321733 -0.0339,-0.4826 -0.0508,-0.2032 -0.14393,-0.3048 -0.28786,-0.3048 -0.33867,0 -0.56727,0.948267 -0.56727,2.319868 0,1.151467 0.18627,1.862667 0.34713,2.252134 0.19474,0.474133 0.4572,0.753534 0.70274,0.753534 0.2032,0 0.4064,-0.330201 0.62653,-1.016001 0.1524,-0.491067 0.27093,-1.024467 0.28787,-1.126067 0.0169,-0.0762 -0.0254,-0.143933 -0.1016,-0.1524 z" />
      <path
         id="path861"
         style="font-style:normal;font-variant:normal;font-weight:normal;font-stretch:normal;font-family:'Michella Garden';-inkscape-font-specification:'Michella Garden';fill:#ffffff;fill-opacity:1;stroke:none;stroke-width:0.264583"
         d="m 111.49218,83.79321 c -0.0593,-0.01693 -0.14393,0.0254 -0.1524,0.1016 -0.0339,0.1778 -0.13546,0.618067 -0.2794,1.007534 -0.1524,0.4064 -0.31326,0.626533 -0.46566,0.626533 -0.0339,0 -0.0593,-0.01693 -0.0847,-0.04233 -0.23707,-0.254 -0.1524,-1.447801 -0.1016,-2.023534 0.008,-0.1778 0.0169,-0.3048 0.0169,-0.3556 -0.008,-0.169334 -0.19473,-0.254 -0.3556,-0.254 -0.13546,0.0085 -0.2286,0.06773 -0.2286,0.160866 0,0.01693 0,0.04233 -0.008,0.08467 -0.0931,-0.127 -0.254,-0.245533 -0.508,-0.245533 -0.254,0 -0.56727,0.186266 -0.8128,0.474133 -0.29634,0.338667 -0.44874,0.762 -0.44874,1.185334 0,0.423333 0.0847,0.770467 0.24554,1.007534 0.1524,0.2032 0.36406,0.321733 0.59266,0.321733 0.3048,0 0.5842,-0.321733 0.82127,-0.948267 0.008,-0.04233 0.0254,-0.08467 0.0423,-0.127 0.0423,0.381 0.14394,0.668867 0.3048,0.846667 0.13547,0.1524 0.31327,0.2286 0.52494,0.2286 0.2794,0 0.52493,-0.296333 0.74506,-0.889 0.0762,-0.220134 0.13547,-0.440267 0.1778,-0.626534 0.0423,-0.1778 0.0677,-0.313267 0.0762,-0.364067 0.0169,-0.1016 -0.0423,-0.160866 -0.1016,-0.169333 z m -2.0066,0.745067 c -0.2794,0.8128 -0.4572,0.905934 -0.51646,0.905934 -0.0169,-0.0085 -0.0762,-0.08467 -0.14394,-0.2794 -0.0593,-0.186267 -0.0847,-0.406401 -0.0847,-0.592667 0,-0.372534 0.0847,-0.719667 0.23706,-0.990601 0.127,-0.220133 0.29634,-0.364067 0.42334,-0.364067 0.2032,0 0.2794,0.160867 0.34713,0.313267 0.008,0.0085 0.0169,0.0254 0.0169,0.03387 0.008,0 0.008,0.0085 0.008,0.0085 -0.0423,0.160866 -0.1524,0.567267 -0.28787,0.9652 z" />
      <path
         id="path863"
         style="font-style:normal;font-variant:normal;font-weight:normal;font-stretch:normal;font-family:'Michella Garden';-inkscape-font-specification:'Michella Garden';fill:#ffffff;fill-opacity:1;stroke:none;stroke-width:0.264583"
         d="m 116.25323,83.835543 c -0.0254,-0.04233 -0.0677,-0.06773 -0.11853,-0.05927 -0.0508,0 -0.1016,0.03387 -0.13547,0.09313 -0.1016,0.211667 -0.89747,1.574801 -1.48167,1.574801 -0.34713,0 -0.57573,-0.448734 -0.57573,-0.872067 0,-0.372534 0.0847,-0.719667 0.24553,-0.990601 0.127,-0.220133 0.29633,-0.364067 0.42333,-0.364067 0.2032,0 0.2794,0.160867 0.34714,0.313267 0.008,0.0085 0.008,0.0254 0.0169,0.03387 0.0339,0.0762 0.0847,0.08467 0.127,0.05927 0.0762,-0.03387 0.127,-0.1778 0.0847,-0.254 0,-0.0085 -0.008,-0.01693 -0.008,-0.03387 -0.0677,-0.143934 -0.21167,-0.4826 -0.64347,-0.4826 -0.29633,0 -0.62653,0.1778 -0.87206,0.474133 -0.2794,0.3302 -0.42334,0.745067 -0.42334,1.185334 0,0.922867 0.60114,1.329267 1.21074,1.329267 0.38946,0 0.8128,-0.4064 1.15147,-0.8382 0.33866,-0.440267 0.59266,-0.897467 0.64346,-0.990601 0.0508,-0.09313 0.0254,-0.1524 0.008,-0.1778 z" />
      <path
         id="path865"
         style="font-style:normal;font-variant:normal;font-weight:normal;font-stretch:normal;font-family:'Michella Garden';-inkscape-font-specification:'Michella Garden';fill:#ffffff;fill-opacity:1;stroke:none;stroke-width:0.264583"
         d="m 118.85713,83.801677 c -0.0508,-0.03387 -0.13547,-0.03387 -0.22014,0.0762 -0.0169,0.0254 -0.0339,0.05927 -0.0593,0.09313 -0.11854,0.194734 -0.34714,0.5588 -0.71967,0.702734 0.0593,-0.262467 0.0847,-0.516467 0.0847,-0.702734 0,-0.186267 -0.0508,-0.474133 -0.18627,-0.7112 -0.1524,-0.262467 -0.36407,-0.4064 -0.62653,-0.4064 -0.1778,0 -0.34714,0.09313 -0.46567,0.254 -0.0508,0.06773 -0.0931,0.143933 -0.11853,0.2286 -0.008,0 -0.008,0 -0.008,0 -0.16087,-0.05927 -0.4064,0.03387 -0.44873,0.110067 -0.13547,0.254 -0.22014,0.6096 -0.22014,0.973667 -0.008,0.381 0.0677,0.7366 0.22014,0.9906 0.16933,0.2794 0.41486,0.4318 0.71966,0.4318 0.381,0 0.70274,-0.245533 0.90594,-0.728133 0.0169,-0.03387 0.0339,-0.08467 0.0508,-0.127 0.22013,-0.04233 0.4318,-0.160867 0.61806,-0.338667 0.11007,-0.09313 0.2032,-0.2032 0.28787,-0.313267 0.0847,-0.110067 0.1524,-0.220134 0.22013,-0.3302 0.0423,-0.06773 0.0339,-0.160867 -0.0339,-0.2032 z m -1.92194,1.667934 c -0.0762,0 -0.14393,-0.03387 -0.19473,-0.09313 -0.1524,-0.194733 -0.18627,-0.626533 -0.16087,-1.032933 0.0423,0.09313 0.0847,0.1778 0.14394,0.262466 0.127,0.1778 0.34713,0.381001 0.70273,0.406401 -0.13547,0.296333 -0.31327,0.4572 -0.49107,0.4572 z m 0.59267,-0.728134 c 0,0 -0.008,0 -0.008,0 -0.508,0 -0.74506,-0.550333 -0.74506,-0.9144 0,-0.440267 0.2032,-0.685801 0.38946,-0.685801 0.19474,0 0.46567,0.330201 0.46567,0.863601 0,0.254 -0.0339,0.508 -0.1016,0.7366 z" />
      <path
         id="path867"
         style="font-style:normal;font-variant:normal;font-weight:normal;font-stretch:normal;font-family:'Michella Garden';-inkscape-font-specification:'Michella Garden';fill:#ffffff;fill-opacity:1;stroke:none;stroke-width:0.264583"
         d="m 122.05369,83.81861 c -0.0339,-0.03387 -0.0762,-0.0508 -0.127,-0.04233 -0.0508,0.0085 -0.0847,0.05927 -0.11006,0.118533 -0.008,0.03387 -0.0254,0.1016 -0.0423,0.194733 -0.0593,0.279401 -0.16933,0.745067 -0.31326,1.151468 -0.1778,0.4572 -0.36407,0.702733 -0.54187,0.702733 -0.0254,0 -0.0423,-0.0085 -0.0593,-0.0254 -0.11853,-0.127 -0.0931,-0.643467 -0.0593,-1.143 0.0423,-0.677334 0.0847,-1.456267 -0.18627,-1.752601 -0.0762,-0.0762 -0.1778,-0.118533 -0.29633,-0.118533 -0.31327,0 -0.635,0.287866 -0.889,0.804333 -0.0931,0.194734 -0.1778,0.414867 -0.23707,0.635001 0.008,-0.440267 0.0339,-0.736601 0.0508,-0.897467 0.008,-0.0508 0.008,-0.09313 0.0169,-0.118534 0.008,-0.127 -0.0931,-0.220133 -0.254,-0.245533 -0.13546,-0.0254 -0.3048,0.01693 -0.3302,0.135466 -0.0254,0.110067 -0.0931,0.558801 -0.0931,1.227668 0,0.567267 0.0762,1.0668 0.11853,1.312333 0.0254,0.118534 0.1778,0.169334 0.3048,0.169334 0.0169,0 0.0423,0 0.0593,-0.0085 0.11853,-0.01693 0.19473,-0.08467 0.1778,-0.1778 0,-0.0085 0,-0.0254 0,-0.04233 0.008,-0.508 0.127,-1.066801 0.31327,-1.549401 0.1778,-0.491067 0.381,-0.7366 0.4826,-0.7366 0.0339,0 0.0593,0.0085 0.0762,0.0254 0.11006,0.118533 0.0931,0.516467 0.0677,0.9398 -0.0339,0.626534 -0.0677,1.337734 0.254,1.676401 0.11853,0.127 0.2794,0.186267 0.4826,0.186267 0.3048,0 0.5842,-0.3048 0.8128,-0.914401 0.1778,-0.474133 0.28787,-1.007533 0.3302,-1.227667 0.008,-0.0508 0.0254,-0.09313 0.0254,-0.110067 0.0169,-0.05927 0.008,-0.127 -0.0339,-0.169333 z" />
      <path
         id="path869"
         style="font-style:normal;font-variant:normal;font-weight:normal;font-stretch:normal;font-family:'Michella Garden';-inkscape-font-specification:'Michella Garden';fill:#ffffff;fill-opacity:1;stroke:none;stroke-width:0.264583"
         d="m 124.70336,83.835543 c -0.0254,-0.04233 -0.0677,-0.06773 -0.11853,-0.05927 -0.0508,0 -0.1016,0.03387 -0.13547,0.09313 -0.1016,0.211667 -0.89746,1.574801 -1.48166,1.574801 -0.34714,0 -0.57574,-0.448734 -0.57574,-0.872067 0,-0.372534 0.0847,-0.719667 0.24554,-0.990601 0.127,-0.220133 0.29633,-0.364067 0.42333,-0.364067 0.2032,0 0.2794,0.160867 0.34713,0.313267 0.008,0.0085 0.008,0.0254 0.0169,0.03387 0.0339,0.0762 0.0847,0.08467 0.127,0.05927 0.0762,-0.03387 0.127,-0.1778 0.0847,-0.254 0,-0.0085 -0.008,-0.01693 -0.008,-0.03387 -0.0677,-0.143934 -0.21167,-0.4826 -0.64347,-0.4826 -0.29633,0 -0.62653,0.1778 -0.87207,0.474133 -0.2794,0.3302 -0.42333,0.745067 -0.42333,1.185334 0,0.922867 0.60113,1.329267 1.21073,1.329267 0.38947,0 0.8128,-0.4064 1.15147,-0.8382 0.33867,-0.440267 0.59267,-0.897467 0.64347,-0.990601 0.0508,-0.09313 0.0254,-0.1524 0.008,-0.1778 z" />
      <path
         id="path871"
         style="font-style:normal;font-variant:normal;font-weight:normal;font-stretch:normal;font-family:'Michella Garden';-inkscape-font-specification:'Michella Garden';fill:#ffffff;fill-opacity:1;stroke:none;stroke-width:0.264583"
         d="m 127.90152,83.81861 c -0.0339,-0.03387 -0.0762,-0.0508 -0.127,-0.04233 -0.0508,0.0085 -0.0931,0.05927 -0.11007,0.118533 -0.008,0.03387 -0.0254,0.09313 -0.0423,0.186267 -0.0593,0.254 -0.16934,0.7366 -0.32174,1.143 -0.1778,0.474134 -0.37253,0.719667 -0.55033,0.719667 -0.0254,0 -0.0508,-0.0085 -0.0677,-0.0254 -0.11854,-0.127 -0.0847,-0.643467 -0.0593,-1.143 0.0423,-0.677334 0.0931,-1.456267 -0.18627,-1.752601 -0.0762,-0.0762 -0.1778,-0.118533 -0.28787,-0.118533 -0.32173,0 -0.635,0.287866 -0.889,0.804333 -0.13546,0.262467 -0.23706,0.567267 -0.29633,0.863601 -0.0169,-0.381 -0.0254,-0.787401 -0.0169,-1.193801 0.1016,-0.4318 0.2794,-1.3462 0.2794,-1.828801 0,-0.491066 -0.0593,-0.8128 -0.32174,-0.8128 -0.21166,0 -0.36406,0.3048 -0.46566,0.931334 -0.0762,0.491067 -0.1016,1.0922 -0.1016,1.490134 0,0.635 0.0677,1.566334 0.2032,2.616201 v 0.0254 c 0.0169,0.110067 0.16933,0.186267 0.3048,0.186267 0.0169,0 0.0339,0 0.0423,-0.0085 0.11853,-0.0085 0.18627,-0.08467 0.1778,-0.186267 0,-0.524933 0.11007,-1.126067 0.31327,-1.642534 0.18626,-0.491067 0.381,-0.7366 0.4826,-0.7366 0.0339,0 0.0593,0.0085 0.0762,0.0254 0.11853,0.118533 0.0931,0.516467 0.0677,0.9398 -0.0339,0.626534 -0.0677,1.337734 0.254,1.676401 0.11854,0.127 0.2794,0.186267 0.4826,0.186267 0.31327,0 0.59267,-0.3048 0.82974,-0.922867 0.18626,-0.474134 0.29633,-0.999067 0.33866,-1.227668 0.008,-0.0508 0.0169,-0.09313 0.0254,-0.1016 0.0169,-0.05927 0.008,-0.127 -0.0339,-0.169333 z" />
      <path
         id="path873"
         style="font-style:normal;font-variant:normal;font-weight:normal;font-stretch:normal;font-family:'Michella Garden';-inkscape-font-specification:'Michella Garden';fill:#ffffff;fill-opacity:1;stroke:none;stroke-width:0.264583"
         d="m 130.9556,83.79321 c -0.0593,-0.01693 -0.14393,0.0254 -0.1524,0.1016 -0.0339,0.1778 -0.13547,0.618067 -0.2794,1.007534 -0.1524,0.4064 -0.31327,0.626533 -0.46567,0.626533 -0.0339,0 -0.0593,-0.01693 -0.0847,-0.04233 -0.23707,-0.254 -0.1524,-1.447801 -0.1016,-2.023534 0.008,-0.1778 0.0169,-0.3048 0.0169,-0.3556 -0.008,-0.169334 -0.19473,-0.254 -0.3556,-0.254 -0.13547,0.0085 -0.2286,0.06773 -0.2286,0.160866 0,0.01693 0,0.04233 -0.008,0.08467 -0.0931,-0.127 -0.254,-0.245533 -0.508,-0.245533 -0.254,0 -0.56726,0.186266 -0.8128,0.474133 -0.29633,0.338667 -0.44873,0.762 -0.44873,1.185334 0,0.423333 0.0847,0.770467 0.24553,1.007534 0.1524,0.2032 0.36407,0.321733 0.59267,0.321733 0.3048,0 0.5842,-0.321733 0.82127,-0.948267 0.008,-0.04233 0.0254,-0.08467 0.0423,-0.127 0.0423,0.381 0.14393,0.668867 0.3048,0.846667 0.13547,0.1524 0.31327,0.2286 0.52493,0.2286 0.2794,0 0.52494,-0.296333 0.74507,-0.889 0.0762,-0.220134 0.13547,-0.440267 0.1778,-0.626534 0.0423,-0.1778 0.0677,-0.313267 0.0762,-0.364067 0.0169,-0.1016 -0.0423,-0.160866 -0.1016,-0.169333 z m -2.0066,0.745067 c -0.2794,0.8128 -0.4572,0.905934 -0.51647,0.905934 -0.0169,-0.0085 -0.0762,-0.08467 -0.14393,-0.2794 -0.0593,-0.186267 -0.0847,-0.406401 -0.0847,-0.592667 0,-0.372534 0.0847,-0.719667 0.23707,-0.990601 0.127,-0.220133 0.29633,-0.364067 0.42333,-0.364067 0.2032,0 0.2794,0.160867 0.34714,0.313267 0.008,0.0085 0.0169,0.0254 0.0169,0.03387 0.008,0 0.008,0.0085 0.008,0.0085 -0.0423,0.160866 -0.1524,0.567267 -0.28787,0.9652 z" />
    </g>
  </g>
</svg>
