<?xml version="1.0" encoding="UTF-8" standalone="no"?>
<svg
   xmlns:dc="http://purl.org/dc/elements/1.1/"
   xmlns:cc="http://creativecommons.org/ns#"
   xmlns:rdf="http://www.w3.org/1999/02/22-rdf-syntax-ns#"
   xmlns:svg="http://www.w3.org/2000/svg"
   xmlns="http://www.w3.org/2000/svg"
   xmlns:sodipodi="http://sodipodi.sourceforge.net/DTD/sodipodi-0.dtd"
   xmlns:inkscape="http://www.inkscape.org/namespaces/inkscape"
   sodipodi:docname="logo-texto-blanco-transparente-30.svg"
   inkscape:version="1.0 (4035a4fb49, 2020-05-01)"
   id="svg8"
   version="1.1"
   viewBox="0 0 59.977238 5.6471694"
   height="5.6471696mm"
   width="59.977238mm">
  <defs
     id="defs2" />
  <sodipodi:namedview
     inkscape:snap-global="false"
     inkscape:snap-page="true"
     inkscape:window-maximized="1"
     inkscape:window-y="-8"
     inkscape:window-x="-8"
     inkscape:window-height="1017"
     inkscape:window-width="1920"
     fit-margin-bottom="0"
     fit-margin-right="0"
     fit-margin-left="0"
     fit-margin-top="0"
     showgrid="false"
     inkscape:document-rotation="0"
     inkscape:current-layer="layer1"
     inkscape:document-units="mm"
     inkscape:cy="9.8146605"
     inkscape:cx="100.17293"
     inkscape:zoom="3.8551137"
     inkscape:pageshadow="2"
     inkscape:pageopacity="0.0"
     borderopacity="1.0"
     bordercolor="#666666"
     pagecolor="#ffffff"
     id="base" />
  <metadata
     id="metadata5">
    <rdf:RDF>
      <cc:Work
         rdf:about="">
        <dc:format>image/svg+xml</dc:format>
        <dc:type
           rdf:resource="http://purl.org/dc/dcmitype/StillImage" />
        <dc:title></dc:title>
      </cc:Work>
    </rdf:RDF>
  </metadata>
  <g
     transform="translate(-1.5785332,-2.026862)"
     style="display:none"
     inkscape:label="fondo"
     id="layer2"
     inkscape:groupmode="layer">
    <rect
       y="-1.1667413"
       x="1.230957e-06"
       height="12.03429"
       width="63.134502"
       id="rect876"
       style="opacity:1;fill:#000000;fill-opacity:1;stroke:none;stroke-width:1.29852" />
  </g>
  <g
     transform="translate(-71.083057,-80.736808)"
     id="layer1"
     inkscape:groupmode="layer"
     inkscape:label="logo">
    <g
       id="g996">
      <g
         id="g980">
        <path
           d="m 73.936285,85.960678 c -0.457201,0 -0.999068,-0.160867 -1.473201,-0.313267 -0.0085,0 -0.0254,-0.0085 -0.03387,-0.0085 0.245534,-0.440267 0.381,-1.109134 0.381,-1.921934 0,-0.220133 -0.0085,-0.643467 -0.01693,-0.956734 0,-0.186266 -0.0085,-0.338667 -0.0085,-0.381 0,-0.160867 0.0085,-0.651933 0.03387,-0.753534 0.01693,-0.08467 -0.03387,-0.1524 -0.135467,-0.186266 -0.127,-0.04233 -0.347133,-0.0254 -0.423333,0.135466 -0.05927,0.135467 -0.09313,0.330201 -0.09313,0.651934 0,0.04233 0,0.2032 0.0085,0.414867 0,0.381 0.0085,0.9652 0.0085,1.2192 0,0.762001 -0.1016,1.295401 -0.245534,1.634068 -0.135466,-0.03387 -0.262466,-0.0508 -0.364066,-0.0508 -0.338667,0 -0.491067,0.2032 -0.491067,0.4064 0,0.287867 0.254,0.389467 0.474133,0.389467 0.254,0 0.4826,-0.110067 0.668867,-0.321734 0.118534,0.04233 0.237067,0.09313 0.347134,0.1524 0.364066,0.160867 0.702733,0.313267 0.956733,0.313267 0.296334,0 0.516467,-0.194733 0.516467,-0.3302 0,-0.04233 -0.0254,-0.09313 -0.110066,-0.09313 z m -2.523068,-0.110067 c 0,-0.0762 0.06773,-0.118534 0.127,-0.118534 0.0762,0 0.160867,0.0085 0.254,0.03387 -0.08467,0.118534 -0.186267,0.169334 -0.2794,0.169334 -0.06773,0 -0.1016,-0.04233 -0.1016,-0.08467 z"
           style="font-style:normal;font-variant:normal;font-weight:normal;font-stretch:normal;font-size:8.46667px;line-height:1.25;font-family:'Michella Garden';-inkscape-font-specification:'Michella Garden';letter-spacing:0px;word-spacing:0px;fill:#ffffff;fill-opacity:0.3;stroke:none;stroke-width:0.264583"
           id="path837" />
        <path
           d="m 76.980582,83.79321 c -0.05927,-0.01693 -0.143934,0.0254 -0.1524,0.1016 -0.03387,0.1778 -0.135467,0.618067 -0.279401,1.007534 -0.1524,0.4064 -0.313266,0.626533 -0.465666,0.626533 -0.03387,0 -0.05927,-0.01693 -0.08467,-0.04233 -0.237067,-0.254 -0.1524,-1.447801 -0.1016,-2.023534 0.0085,-0.1778 0.01693,-0.3048 0.01693,-0.3556 -0.0085,-0.169334 -0.194733,-0.254 -0.3556,-0.254 -0.135467,0.0085 -0.2286,0.06773 -0.2286,0.160866 0,0.01693 0,0.04233 -0.0085,0.08467 -0.09313,-0.127 -0.254,-0.245533 -0.508,-0.245533 -0.254,0 -0.567267,0.186266 -0.8128,0.474133 -0.296334,0.338667 -0.448734,0.762 -0.448734,1.185334 0,0.423333 0.08467,0.770467 0.245534,1.007534 0.1524,0.2032 0.364066,0.321733 0.592667,0.321733 0.3048,0 0.5842,-0.321733 0.821267,-0.948267 0.0085,-0.04233 0.0254,-0.08467 0.04233,-0.127 0.04233,0.381 0.143933,0.668867 0.3048,0.846667 0.135467,0.1524 0.313267,0.2286 0.524934,0.2286 0.2794,0 0.524933,-0.296333 0.745067,-0.889 0.0762,-0.220134 0.135466,-0.440267 0.1778,-0.626534 0.04233,-0.1778 0.06773,-0.313267 0.0762,-0.364067 0.01693,-0.1016 -0.04233,-0.160866 -0.1016,-0.169333 z m -2.006601,0.745067 c -0.2794,0.8128 -0.4572,0.905934 -0.516467,0.905934 -0.01693,-0.0085 -0.0762,-0.08467 -0.143933,-0.2794 -0.05927,-0.186267 -0.08467,-0.406401 -0.08467,-0.592667 0,-0.372534 0.08467,-0.719667 0.237067,-0.990601 0.127,-0.220133 0.296333,-0.364067 0.423333,-0.364067 0.2032,0 0.2794,0.160867 0.347134,0.313267 0.0085,0.0085 0.01693,0.0254 0.01693,0.03387 0.0085,0 0.0085,0.0085 0.0085,0.0085 -0.04233,0.160866 -0.1524,0.567267 -0.287867,0.9652 z"
           style="font-style:normal;font-variant:normal;font-weight:normal;font-stretch:normal;font-size:8.46667px;line-height:1.25;font-family:'Michella Garden';-inkscape-font-specification:'Michella Garden';letter-spacing:0px;word-spacing:0px;fill:#ffffff;fill-opacity:0.3;stroke:none;stroke-width:0.264583"
           id="path839" />
      </g>
      <path
         id="path841"
         style="font-style:normal;font-variant:normal;font-weight:normal;font-stretch:normal;font-size:8.46667px;line-height:1.25;font-family:'Michella Garden';-inkscape-font-specification:'Michella Garden';letter-spacing:0px;word-spacing:0px;fill:#ffffff;fill-opacity:0.3;stroke:none;stroke-width:0.999999"
         d="m 37.322266,12.070312 c -0.799998,0 -1.375766,1.151529 -1.759766,3.519532 -0.288,1.856001 -0.384766,4.12881 -0.384766,5.632812 0,2.4 0.257515,5.918718 0.769532,9.886719 v 0.09766 c 0.06399,0.416002 0.638389,0.703125 1.15039,0.703125 0.06399,0 0.128187,8.76e-4 0.160156,-0.03125 0.447999,-0.03213 0.703872,-0.321089 0.671876,-0.705078 0,-1.983999 0.417546,-4.25503 1.185546,-6.207031 0.704002,-1.856001 1.440219,-2.785156 1.824219,-2.785156 0.128013,0 0.223127,0.03183 0.287109,0.0957 0.448003,0.447998 0.35186,1.952735 0.25586,3.552734 -0.128013,2.368003 -0.255054,5.055936 0.960937,6.335938 0.447999,0.48 1.054266,0.703125 1.822266,0.703125 1.184001,0 2.240721,-1.150327 3.136719,-3.486329 0.162576,-0.413825 0.305247,-0.839661 0.4375,-1.257812 0.20859,0.928891 0.538057,1.785038 1.089844,2.376953 0.511996,0.576 1.183631,0.863281 2.015624,0.863281 1.056,0 1.985159,-1.119373 2.785157,-3.359375 0.304872,-0.792639 0.51759,-1.577875 0.675781,-2.259765 0.24171,0.350724 0.494528,0.699214 0.748047,1.044922 0.415997,0.576 0.833548,1.15131 1.185547,1.695312 -0.735999,0.96 -1.089844,1.823343 -1.089844,2.527344 0,1.215999 0.800356,1.855469 1.568359,1.855469 0.799998,0 2.113282,-1.311657 2.113282,-2.847657 0,-0.672 -0.289077,-1.344075 -0.705079,-2.080078 0.994324,-1.07955 2.131358,-2.048855 2.902344,-2.691406 0.270266,1.871055 0.680137,3.211718 1.046875,4.099609 0.704002,1.791999 1.69625,2.847657 2.65625,2.847657 0.694402,0 1.419022,-1.154587 2.197266,-3.457032 0.121677,0.359062 0.262493,0.699214 0.439453,0.994141 0.640003,1.056 1.56675,1.630859 2.71875,1.630859 1.44,0 2.655828,-0.927953 3.423828,-2.751953 0.06399,-0.128012 0.09617,-0.222825 0.160156,-0.382812 1.696003,-0.480004 3.937375,-2.527667 4.609375,-7.263672 0.320013,0.06399 0.607873,0.0957 0.671875,0.0957 0.831999,0.128013 1.631468,0.256289 1.855469,0.320312 0.576,0.159988 0.479575,1.214766 0.351563,3.134766 -0.06399,1.152 -0.160157,2.560311 -0.160157,4.320313 0,1.952001 1.280263,3.359375 3.072266,3.359375 1.088001,0 2.144717,-1.3428 3.136719,-3.966797 0.06829,-0.18112 0.120382,-0.354915 0.183594,-0.535157 0.1944,1.097182 0.550356,2.123161 1.1875,2.806641 0.511996,0.576 1.183623,0.863281 2.015624,0.863281 0.941399,0 1.781383,-0.895693 2.519532,-2.675781 0.154022,0.559501 0.361372,1.058032 0.634765,1.460938 0.576004,0.768 1.374282,1.214843 2.238282,1.214843 1.152003,0 2.209471,-1.215981 3.105468,-3.583984 0.03213,-0.159987 0.09617,-0.318528 0.160157,-0.478516 0.159987,1.44 0.542389,2.527219 1.150394,3.199219 0.512,0.576 1.18437,0.863281 1.98437,0.863281 1.05601,0 1.98441,-1.119373 2.81641,-3.359375 0.288,-0.832002 0.51187,-1.663186 0.67187,-2.367187 0.15999,-0.672 0.25705,-1.184953 0.28906,-1.376953 0.064,-0.384 -0.16075,-0.606671 -0.38476,-0.638672 v -0.002 c -0.22401,-0.06399 -0.54417,0.09677 -0.57617,0.384765 -0.12802,0.672 -0.51264,2.336593 -1.05664,3.808594 -0.576,1.536 -1.18377,2.367188 -1.75977,2.367188 -0.12801,0 -0.22236,-0.06416 -0.31836,-0.160157 -0.896,-0.96 -0.57676,-5.470485 -0.38476,-7.646484 0.0321,-0.672 0.0644,-1.153703 0.0644,-1.345703 -0.0321,-0.640003 -0.73575,-0.958985 -1.34375,-0.958985 -0.512002,0.03213 -0.865235,0.255412 -0.865235,0.607422 0,0.06399 8.76e-4,0.160288 -0.03125,0.320313 -0.351987,-0.48 -0.959922,-0.927735 -1.919922,-0.927735 -0.96,0 -2.144267,0.703015 -3.072265,1.791016 -1.104034,1.261751 -1.677175,2.834985 -1.69336,4.41211 -0.138838,0.51859 -0.292069,1.046308 -0.46875,1.541015 -0.576,1.536 -1.183765,2.367188 -1.759766,2.367188 -0.096,0 -0.191109,-0.03107 -0.287109,-0.126953 -0.224012,-0.255988 -0.513375,-0.927954 -0.609375,-2.751954 -0.06399,-1.280001 0.0011,-2.688437 0.0332,-3.648437 0.03213,-0.512001 0.03125,-0.864641 0.03125,-1.056641 -0.03213,-0.640002 -0.799905,-0.959735 -1.503906,-0.927734 -0.576,0 -0.927734,0.255408 -0.927734,0.607422 0,0.06399 -0.03125,0.192765 -0.03125,0.384765 -0.03996,0.459485 -0.09486,1.22622 -0.107422,2.101563 -0.210213,0.77877 -0.529711,1.8911 -1.009766,3.115234 -1.056,2.720002 -1.759329,3.134766 -2.111328,3.134766 -0.512001,0 -0.735581,-0.606875 -0.767578,-2.046875 0,-0.768 0.06369,-1.600096 0.0957,-2.496094 0.06399,-1.344 0.159111,-2.721344 0.03125,-3.777344 -0.159987,-1.280001 -0.544046,-1.982579 -1.248047,-2.142578 -0.703997,-0.128012 -1.503484,-0.224312 -2.271484,-0.320312 -0.544003,-0.06399 -1.056358,-0.129372 -1.56836,-0.19336 0,-1.056 -0.190675,-1.983345 -0.638671,-2.527343 -0.255988,-0.320013 -0.60939,-0.480469 -1.025391,-0.480469 -0.864,0 -1.566406,0.864669 -1.566406,1.888672 0,0.895997 0.703014,1.600217 1.791015,1.824219 0.03213,0 0.192015,0.03259 0.416016,0.06445 -0.255988,2.784 -1.887671,5.598575 -3.263672,6.142578 0.224013,-0.992002 0.320312,-1.950296 0.320312,-2.654297 0,-0.704001 -0.193076,-1.793452 -0.705078,-2.689453 -0.576,-0.992002 -1.37519,-1.535157 -2.367187,-1.535157 -0.672004,0 -1.311767,0.350972 -1.759766,0.958985 -0.192,0.255987 -0.353203,0.545233 -0.449219,0.865234 h -0.03125 c -0.607999,-0.224012 -1.535313,0.128027 -1.695312,0.416016 -0.512001,0.96 -0.832031,2.303686 -0.832031,3.679687 -0.0011,0.0479 0.0043,0.09295 0.0039,0.140625 -0.269594,0.962035 -0.550254,1.889178 -0.847656,2.707032 -0.543999,1.504002 -0.89739,2.048531 -1.025391,2.144531 -0.03213,0 -0.127419,-0.06488 -0.191406,-0.128906 -0.511998,-0.576 -0.928343,-2.655157 -1.152344,-5.535157 -0.096,-1.248003 -0.126953,-2.592298 -0.126953,-3.904297 0.03213,-0.096 0.06445,-0.192299 0.06445,-0.320312 0.128013,-0.639999 0.288014,-1.440233 0.416016,-2.240234 0.639998,0.06399 1.183608,0.128906 1.599609,0.128906 1.184001,0 2.111951,-0.22509 2.751953,-0.705078 0.224013,-0.192 0.287703,-0.510378 0.0957,-0.734375 -0.159987,-0.224013 -0.481076,-0.289654 -0.705078,-0.09766 -0.48,0.320013 -1.182578,0.513672 -2.142578,0.513672 -0.351987,0 -0.832203,-0.06488 -1.408203,-0.128906 0.128013,-0.96 0.224609,-1.919496 0.224609,-2.6875 v -0.0957 c 0,-0.511997 -8.93e-4,-1.216217 -0.128906,-1.824219 -0.159987,-0.768 -0.544643,-1.152343 -1.056641,-1.152344 -0.991998,0 -1.727627,2.048503 -2.015624,5.3125 -0.768,-0.128009 -3.03878,-0.320312 -3.550782,-0.320312 -1.376001,0 -2.496719,0.158675 -3.136718,1.054688 -0.192001,0.224009 -0.12831,0.544328 0.0957,0.736328 0.096,0.06399 0.1923,0.0957 0.320312,0.0957 0.159988,0 0.320027,-0.09464 0.416016,-0.222657 0.288,-0.384 0.960687,-0.609374 2.304687,-0.609374 0.48,0 2.71908,0.193062 3.455078,0.289062 -0.03213,0.768 -0.06445,1.567641 -0.06445,2.431641 0,1.17672 0.0579,2.221792 0.148438,3.164062 -0.103616,0.100295 -0.305165,0.272061 -0.578125,0.484375 -0.672004,0.576 -1.791202,1.504096 -2.783203,2.496094 -0.128013,-0.192 -0.288019,-0.383425 -0.416016,-0.607422 -0.928003,-1.344 -1.888672,-2.72075 -1.888672,-3.96875 0,-0.896001 0.511594,-1.537109 1.183594,-1.537109 0.576,0 0.897547,0.384325 1.185547,0.736328 0.224012,0.320012 0.479875,0.321372 0.671875,0.193359 0.096,-0.06399 0.191406,-0.224778 0.191406,-0.384766 0,-0.096 -0.03183,-0.223587 -0.0957,-0.351562 -0.48,-0.768 -1.152387,-1.537109 -2.400391,-1.537109 -0.768,0 -1.502876,0.224635 -2.046875,0.640625 -0.672004,0.48 -0.992187,1.215326 -0.992187,2.111328 0,0.740554 0.238644,1.453206 0.59375,2.148437 -0.180869,0.887861 -0.47921,2.209365 -0.900391,3.388672 -0.576,1.536 -1.183766,2.367188 -1.759766,2.367188 -0.096,0 -0.191109,-0.03107 -0.287109,-0.126953 -0.224012,-0.255988 -0.513375,-0.927954 -0.609375,-2.751954 -0.06399,-1.280001 0.0011,-2.688437 0.0332,-3.648437 0.03213,-0.512001 0.03125,-0.864641 0.03125,-1.056641 -0.03213,-0.640002 -0.799905,-0.959735 -1.503906,-0.927734 -0.576,0 -0.927734,0.255408 -0.927734,0.607422 0,0.06399 -0.03125,0.192765 -0.03125,0.384765 -0.04252,0.488956 -0.104996,1.322031 -0.111329,2.269532 -0.231759,0.994555 -0.61689,2.648948 -1.160156,4.097656 -0.672,1.792002 -1.408074,2.720703 -2.080078,2.720703 -0.096,0 -0.191872,-0.03183 -0.255859,-0.0957 -0.447999,-0.48 -0.32061,-2.432314 -0.22461,-4.320313 0.159988,-2.560002 0.35286,-5.503049 -0.703125,-6.623046 -0.288,-0.288001 -0.671889,-0.449219 -1.08789,-0.449219 -1.216003,0 -2.401328,1.089014 -3.361328,3.041015 -0.512002,0.992002 -0.89514,2.14367 -1.119141,3.263672 -0.06399,-1.44 -0.09647,-2.975724 -0.06445,-4.511718 0.384,-1.632001 1.056641,-5.088106 1.05664,-6.91211 0,-1.855997 -0.224806,-3.072266 -1.216796,-3.072266 z m 39.457031,5.984376 c 0.128012,0 0.193062,0.06416 0.289062,0.160156 0.224013,0.288 0.3508,0.895612 0.382813,1.599609 -0.704001,-0.192 -1.183594,-0.448486 -1.183594,-0.896484 0,-0.384004 0.22373,-0.863282 0.511719,-0.863281 z m -27.689453,0.992187 c -0.192,0 -0.416173,0.06339 -0.576172,0.191406 -0.159988,0.096 -0.288766,0.255251 -0.384766,0.447266 -0.159987,0.415997 -0.06322,1.088202 0.384766,1.408203 0.128012,0.06399 0.288469,0.0957 0.480469,0.0957 0.255987,0 0.542375,-0.06386 0.734375,-0.255859 0.415997,-0.416002 0.448298,-0.960047 0.320312,-1.248047 -0.192,-0.416001 -0.542983,-0.638672 -0.958984,-0.638672 z m 39.75,0 c -0.192,0 -0.416173,0.06339 -0.576172,0.191406 -0.159988,0.096 -0.288766,0.255251 -0.384766,0.447266 -0.159987,0.415997 -0.06322,1.088202 0.384766,1.408203 0.128012,0.06399 0.288469,0.0957 0.480469,0.0957 0.255987,0 0.542375,-0.06386 0.734375,-0.255859 0.416001,-0.416002 0.448302,-0.960047 0.320312,-1.248047 -0.192,-0.416001 -0.542983,-0.638672 -0.958984,-0.638672 z M 71.53125,21.158203 c 0.736003,0 1.759766,1.247672 1.759766,3.263672 0,0.96 -0.126825,1.921156 -0.382813,2.785156 H 72.875 c -1.92,0 -2.814453,-2.08103 -2.814453,-3.457031 0,-1.664001 0.766702,-2.591797 1.470703,-2.591797 z m 26.445312,0.287109 c 0.768,0 1.056502,0.609547 1.3125,1.185547 0.03213,0.03213 0.06445,0.09494 0.06445,0.126953 0.03213,0 0.03125,0.0332 0.03125,0.0332 -0.159988,0.607997 -0.575894,2.142485 -1.087891,3.646484 -1.056,3.072 -1.727174,3.423828 -1.951172,3.423828 -0.06399,-0.03213 -0.288919,-0.3187 -0.544922,-1.054687 -0.224012,-0.704002 -0.320312,-1.536237 -0.320312,-2.240235 0,-1.408002 0.320499,-2.720138 0.896484,-3.74414 0.48,-0.831999 1.11961,-1.376954 1.599609,-1.376954 z m -28.652343,4.25586 c 0.159987,0.351987 0.318982,0.67219 0.542969,0.992187 0.479998,0.672 1.312249,1.44111 2.65625,1.53711 -0.512002,1.119998 -1.183469,1.728515 -1.855469,1.728515 -0.288,0 -0.544328,-0.12954 -0.736328,-0.353515 -0.576,-0.735999 -0.703422,-2.368297 -0.607422,-3.904297 z m -12.410157,3.96875 c 0.128013,0.384 0.19336,0.735896 0.19336,1.08789 0,0.736003 -0.129075,1.056641 -0.289063,1.056641 -0.224012,0 -0.320312,-0.448782 -0.320312,-0.800781 0,-0.416001 0.160006,-0.86375 0.416015,-1.34375 z"
         transform="matrix(0.26458333,0,0,0.26458333,69.504525,77.543205)" />
      <path
         id="path855"
         style="font-style:normal;font-variant:normal;font-weight:normal;font-stretch:normal;font-size:8.46667px;line-height:1.25;font-family:'Michella Garden';-inkscape-font-specification:'Michella Garden';letter-spacing:0px;word-spacing:0px;fill:#ffffff;fill-opacity:0.3;stroke:none;stroke-width:0.999999"
         d="m 121.15625,12.070312 c -0.80001,0 -1.37577,1.184435 -1.75977,3.648438 -0.288,1.824 -0.38476,3.934531 -0.38476,4.894531 v 0.160157 c -0.384,-0.384001 -0.92778,-0.703126 -1.75977,-0.703126 -0.96,0 -2.14426,0.703015 -3.07226,1.791016 -1.12,1.280001 -1.69531,2.880466 -1.69531,4.480469 0,1.599999 0.31974,2.912592 0.92773,3.808594 0.576,0.768 1.37625,1.214843 2.24023,1.214843 1.152,0 2.20751,-1.215981 3.10352,-3.583984 0.12813,-0.320013 0.22381,-0.671439 0.35156,-1.023438 0.25588,2.784 0.80083,4.67311 1.63281,5.53711 0.384,0.384 0.8325,0.574219 1.3125,0.574219 1.056,0 1.98243,-1.374951 2.81446,-4.126953 0.006,-0.02241 0.0112,-0.04398 0.0176,-0.06641 0.86935,1.833418 2.43906,2.689453 3.66601,2.689453 0.96,0 1.98574,-0.991362 3.00977,-2.943359 0.89597,-1.696003 1.50331,-3.582954 1.69531,-4.126953 0.0639,-0.224013 0.0305,-0.416925 -0.0957,-0.544922 -0.12813,-0.127226 -0.31847,-0.19207 -0.50977,-0.160156 -0.192,0.06399 -0.32089,0.192014 -0.38477,0.416015 -0.0639,0.192 -0.6402,1.792125 -1.4082,3.328125 -1.28001,2.624002 -2.0155,2.88086 -2.27148,2.88086 -0.288,0 -0.76758,-0.385249 -1.1836,-1.28125 -0.44798,-0.96 -0.70507,-2.175828 -0.70507,-3.423828 0,-0.224013 0.001,-0.415422 0.0312,-0.607422 0.0302,-0.03213 0.0636,-0.0332 0.0957,-0.0332 2.43201,-0.576 2.94336,-1.983513 2.94336,-3.103516 0,-0.512001 -0.19145,-0.991751 -0.60742,-1.34375 -0.384,-0.320013 -0.89547,-0.511719 -1.43946,-0.511719 -0.99201,0 -1.85607,0.511905 -2.49609,1.503906 -0.672,0.992002 -0.99219,2.431702 -0.99219,4.095704 0,0.40336 0.0308,0.779122 0.0781,1.138672 -0.16655,0.721334 -0.34998,1.481046 -0.5625,2.189453 -0.768,2.496003 -1.37729,2.847656 -1.69727,2.847656 0,0 -0.0622,2.97e-4 -0.1582,-0.0957 -0.48,-0.608002 -0.73586,-3.200715 -0.67188,-7.136719 0.0302,-0.831999 0.0299,-1.695345 0.0957,-2.527344 0.41601,-1.760001 1.05468,-4.959199 1.05468,-6.783203 0,-1.215999 -0.12781,-2.049297 -0.35156,-2.529297 -0.25587,-0.512001 -0.60729,-0.542969 -0.86328,-0.542969 z m 6.85352,9.152344 c 0.12812,0.03213 0.16015,0.448171 0.16015,0.576172 0,1.215999 -0.7365,1.758425 -1.3125,1.982422 0.12813,-0.607997 0.25592,-1.054251 0.41602,-1.40625 0.32012,-0.800001 0.64033,-1.120346 0.73633,-1.152344 z m -10.47071,0.222656 c 0.768,0 1.05652,0.609547 1.3125,1.185547 0.0302,0.03213 0.0645,0.09494 0.0645,0.126953 0.0302,0 0.0293,0.0332 0.0293,0.0332 -0.15987,0.607997 -0.57588,2.142485 -1.08789,3.646484 h 0.002 c -1.056,3.072 -1.69519,3.423828 -1.95118,3.423828 -0.0639,-0.03213 -0.28889,-0.3187 -0.54492,-1.054687 -0.192,-0.704002 -0.32031,-1.536237 -0.32031,-2.240235 0,-1.408002 0.32048,-2.720138 0.89648,-3.74414 0.48,-0.831999 1.11961,-1.376954 1.59961,-1.376954 z"
         transform="matrix(0.26458333,0,0,0.26458333,69.504525,77.543205)" />
      <path
         id="path859"
         style="font-style:normal;font-variant:normal;font-weight:normal;font-stretch:normal;font-size:8.46667px;line-height:1.25;font-family:'Michella Garden';-inkscape-font-specification:'Michella Garden';letter-spacing:0px;word-spacing:0px;fill:#ffffff;fill-opacity:0.3;stroke:none;stroke-width:0.999999"
         d="m 142.00977,12.070312 c -1.28002,0 -2.14454,3.583575 -2.14454,8.767579 0,4.352001 0.70453,7.039717 1.3125,8.511718 0.73603,1.791999 1.72823,2.847657 2.65625,2.847657 0.72197,0 1.44559,-1.148127 2.22071,-3.433594 0.15229,0.527069 0.34676,1.002527 0.60742,1.386719 0.576,0.768 1.37623,1.214843 2.24023,1.214843 1.152,0 2.20946,-1.215981 3.10547,-3.583984 0.0302,-0.159987 0.0943,-0.318528 0.15821,-0.478516 0.15987,1.44 0.54436,2.527219 1.15234,3.199219 0.51201,0.576 1.18436,0.863281 1.98437,0.863281 1.056,0 1.98442,-1.119373 2.81641,-3.359375 0.288,-0.832002 0.51189,-1.663186 0.67188,-2.367187 0.15987,-0.672 0.25498,-1.184953 0.2871,-1.376953 0.0639,-0.384 -0.15868,-0.606671 -0.38281,-0.638672 l -0.002,-0.002 c -0.22413,-0.06399 -0.54416,0.09677 -0.57617,0.384765 -0.12813,0.672 -0.51262,2.336593 -1.05664,3.808594 -0.576,1.536 -1.18377,2.367188 -1.75977,2.367188 -0.12812,0 -0.22431,-0.06416 -0.32031,-0.160157 -0.89601,-0.96 -0.57481,-5.470485 -0.38281,-7.646484 0.0302,-0.672 0.0645,-1.153703 0.0645,-1.345703 -0.0302,-0.640003 -0.73769,-0.958985 -1.3457,-0.958985 -0.51198,0.03213 -0.86329,0.255412 -0.86329,0.607422 0,0.06399 9.4e-4,0.160288 -0.0293,0.320313 -0.35188,-0.48 -0.95992,-0.927735 -1.91992,-0.927735 -0.96,0 -2.14428,0.703015 -3.07227,1.791016 -0.98505,1.125746 -1.55018,2.499249 -1.67187,3.902344 -0.30782,1.094727 -0.63026,2.154048 -0.96485,3.074219 -0.54402,1.504002 -0.86417,2.048531 -0.99219,2.144531 -0.0639,0 -0.12948,-0.06488 -0.19335,-0.128906 -0.51202,-0.576 -0.9584,-2.655157 -1.1504,-5.535157 -0.096,-1.248003 -0.1289,-2.592298 -0.1289,-3.904297 0,-0.096 0.0308,-0.192299 0.0644,-0.320312 0.32013,-1.664001 0.83203,-4.223168 0.83203,-5.951172 v -0.0957 c 0,-0.511997 -7.8e-4,-1.216217 -0.1289,-1.824219 -0.192,-0.768 -0.54391,-1.152344 -1.08789,-1.152344 z m 8.77929,9.375 c 0.768,0 1.05652,0.609547 1.3125,1.185547 0.0302,0.03213 0.0645,0.09494 0.0645,0.126953 0.0302,0 0.0293,0.0332 0.0293,0.0332 -0.15987,0.607997 -0.57588,2.142485 -1.08789,3.646484 h 0.002 c -1.056,3.072 -1.7272,3.423828 -1.95118,3.423828 -0.0639,-0.03213 -0.28889,-0.3187 -0.54492,-1.054687 -0.22412,-0.704002 -0.32031,-1.536237 -0.32031,-2.240235 0,-1.408002 0.32063,-2.720138 0.89648,-3.74414 0.48,-0.831999 1.11961,-1.376954 1.59961,-1.376954 z"
         transform="matrix(0.26458333,0,0,0.26458333,69.504525,77.543205)" />
      <path
         id="path863"
         style="font-style:normal;font-variant:normal;font-weight:normal;font-stretch:normal;font-size:8.46667px;line-height:1.25;font-family:'Michella Garden';-inkscape-font-specification:'Michella Garden';letter-spacing:0px;word-spacing:0px;fill:#ffffff;fill-opacity:0.3;stroke:none;stroke-width:0.999999"
         d="m 209.38477,12.070312 c -0.79998,0 -1.37577,1.151529 -1.75977,3.519532 -0.288,1.856001 -0.38281,4.12881 -0.38281,5.632812 0,0.909688 0.0476,2.019932 0.12109,3.214844 -0.79999,1.435835 -3.31861,5.423828 -5.29687,5.423828 -1.31203,0 -2.17774,-1.694923 -2.17774,-3.294922 0,-1.408002 0.32179,-2.720138 0.92969,-3.74414 0.48,-0.831999 1.11961,-1.376954 1.59961,-1.376954 0.768,0 1.05651,0.609547 1.3125,1.185547 0.0302,0.03213 0.0289,0.09494 0.0625,0.126953 0.12812,0.288001 0.32059,0.32061 0.48047,0.22461 0.288,-0.128013 0.48018,-0.672938 0.32031,-0.960938 0,-0.03213 -0.0312,-0.06293 -0.0312,-0.126953 -0.25587,-0.544002 -0.79964,-1.824218 -2.43164,-1.824219 -1.11999,0 -2.3669,0.671017 -3.29492,1.791016 -0.9923,1.172712 -1.52828,2.629673 -1.58985,4.181641 -0.23066,0.954631 -0.50827,2.015306 -0.875,3.050781 -0.672,1.728 -1.37682,2.65625 -2.04882,2.65625 -0.096,0 -0.15841,-0.03183 -0.22266,-0.0957 -0.44799,-0.48 -0.35236,-2.432314 -0.22461,-4.320313 0.15987,-2.560002 0.32098,-5.503047 -0.70312,-6.623046 -0.28801,-0.288001 -0.67311,-0.449219 -1.1211,-0.449219 -1.18401,0 -2.39937,1.089014 -3.35937,3.041015 -0.35188,0.736003 -0.67248,1.566435 -0.89649,2.398438 0.0302,-1.664001 0.12753,-2.782628 0.19141,-3.390625 0.0302,-0.192 0.0308,-0.353204 0.0644,-0.449219 0.0302,-0.48 -0.35281,-0.831734 -0.96094,-0.927734 -0.51197,-0.096 -1.15009,0.06371 -1.24609,0.511718 -0.069,0.298894 -0.21899,1.280098 -0.29883,2.734376 -0.0256,0.04068 -0.0411,0.07367 -0.0723,0.115234 -0.44803,0.736002 -1.31077,2.110294 -2.71875,2.654297 0.22412,-0.992002 0.32031,-1.950296 0.32031,-2.654297 0,-0.704001 -0.19307,-1.793452 -0.70508,-2.689453 -0.576,-0.992002 -1.37521,-1.535157 -2.36719,-1.535157 -0.672,0 -1.31178,0.350972 -1.75976,0.958985 -0.192,0.255987 -0.35311,0.545233 -0.44922,0.865234 h -0.0293 c -0.60801,-0.224012 -1.53728,0.128027 -1.69726,0.416016 -0.3281,0.615161 -0.56444,1.394526 -0.70118,2.232422 -0.86277,1.521513 -3.304,5.318359 -5.23632,5.318359 -1.31199,0 -2.17774,-1.694923 -2.17774,-3.294922 0,-1.408002 0.32183,-2.720138 0.92969,-3.74414 0.48,-0.831999 1.11961,-1.376954 1.59961,-1.376954 0.768,0 1.05647,0.609547 1.3125,1.185547 0.0302,0.03213 0.0289,0.09494 0.0625,0.126953 0.12812,0.288001 0.32059,0.32061 0.48047,0.22461 0.288,-0.128013 0.48018,-0.672938 0.32031,-0.960938 0,-0.03213 -0.0312,-0.06293 -0.0312,-0.126953 -0.25587,-0.544002 -0.79964,-1.824218 -2.43164,-1.824219 -1.11999,0 -2.36694,0.671017 -3.29492,1.791016 -1.056,1.248 -1.60157,2.816468 -1.60156,4.480469 0,3.488001 2.27217,5.023437 4.57617,5.023437 1.47197,0 3.0735,-1.535968 4.35351,-3.167968 0.38221,-0.496882 0.72194,-0.985128 1.03516,-1.455078 0.067,1.148215 0.33104,2.202989 0.80469,2.992187 0.63998,1.056 1.5687,1.630859 2.7207,1.630859 1.44,0 2.65583,-0.927953 3.42383,-2.751953 0.0639,-0.128012 0.12753,-0.318528 0.1914,-0.478515 0.83199,-0.159988 1.63197,-0.60925 2.33594,-1.28125 0.27806,-0.235265 0.52099,-0.502163 0.75195,-0.775391 v 0.0078 c 0,2.143998 0.28924,4.032938 0.44922,4.960937 0.096,0.448003 0.67235,0.638672 1.15235,0.638672 0.0639,0 0.1584,8.76e-4 0.22265,-0.03125 0.44799,-0.06399 0.73587,-0.319888 0.67188,-0.671875 v -0.160156 c 0.0302,-1.92 0.48153,-4.031469 1.18555,-5.855469 0.67197,-1.856001 1.43826,-2.785156 1.82226,-2.785156 0.12813,0 0.22519,0.03183 0.28906,0.0957 0.41598,0.447998 0.35186,1.952735 0.25586,3.552734 -0.12812,2.368003 -0.25689,5.055936 0.95899,6.335938 0.44798,0.48 1.05622,0.703125 1.82422,0.703125 1.152,0 2.20826,-1.151075 3.07226,-3.455079 0.0944,-0.251624 0.17159,-0.509044 0.25586,-0.765624 0.75776,1.86651 2.44829,2.716796 4.16016,2.716796 1.47201,0 3.0735,-1.535968 4.35351,-3.167968 0.51296,-0.66684 0.95272,-1.32127 1.33399,-1.916016 0.12574,1.497488 0.28962,3.107317 0.51172,4.828125 v 0.09766 c 0.0639,0.416002 0.64033,0.703125 1.15234,0.703125 0.0639,0 0.12645,8.76e-4 0.1582,-0.03125 0.44799,-0.03213 0.70389,-0.321089 0.67188,-0.705078 0,-1.983999 0.41754,-4.25503 1.18554,-6.207031 0.70398,-1.856001 1.44022,-2.785156 1.82422,-2.785156 0.12813,0 0.22324,0.03183 0.28711,0.0957 0.44799,0.447998 0.35186,1.952735 0.25586,3.552734 -0.12812,2.368003 -0.25493,5.055936 0.96094,6.335938 0.44802,0.48 1.05427,0.703125 1.82226,0.703125 1.18402,0 2.24071,-1.150327 3.13672,-3.486329 0.0677,-0.172391 0.11923,-0.348649 0.18164,-0.523437 0.14928,0.486538 0.33369,0.9307 0.57813,1.291016 0.576,0.768 1.37623,1.214843 2.24023,1.214843 1.152,0 2.20946,-1.215981 3.10547,-3.583984 0.0302,-0.159987 0.0943,-0.318528 0.15821,-0.478516 0.15987,1.44 0.54433,2.527219 1.15234,3.199219 0.51201,0.576 1.1844,0.863281 1.98437,0.863281 1.056,0 1.98442,-1.119373 2.81641,-3.359375 0.288,-0.832002 0.51189,-1.663186 0.67188,-2.367187 0.15987,-0.672 0.25498,-1.184953 0.2871,-1.376953 0.0639,-0.384 -0.15868,-0.606671 -0.38281,-0.638672 l -0.002,-0.002 c -0.22413,-0.06399 -0.54416,0.09677 -0.57617,0.384765 -0.12813,0.672 -0.5107,2.336593 -1.05469,3.808594 -0.576,1.536 -1.18572,2.367188 -1.76172,2.367188 -0.12812,0 -0.22431,-0.06416 -0.32031,-0.160157 -0.89601,-0.96 -0.57481,-5.470485 -0.38281,-7.646484 0.0302,-0.672 0.0645,-1.153703 0.0645,-1.345703 -0.0302,-0.640003 -0.73769,-0.958985 -1.3457,-0.958985 -0.51202,0.03213 -0.86329,0.255412 -0.86329,0.607422 0,0.06399 9.4e-4,0.160288 -0.0293,0.320313 -0.35188,-0.48 -0.95992,-0.927735 -1.91992,-0.927735 -0.96,0 -2.14424,0.703015 -3.07227,1.791016 -1.07438,1.227874 -1.64255,2.750823 -1.6875,4.285156 -0.22762,0.908391 -0.50194,1.91404 -0.86523,2.882813 -0.672,1.792002 -1.40808,2.720703 -2.08008,2.720703 -0.096,0 -0.19199,-0.03183 -0.25586,-0.0957 -0.44803,-0.48 -0.32061,-2.432314 -0.22461,-4.320313 0.15987,-2.560002 0.35276,-5.503045 -0.70313,-6.623046 -0.288,-0.288001 -0.67187,-0.449219 -1.08789,-0.449219 -1.21598,0 -2.40132,1.089014 -3.36132,3.041015 -0.51198,0.992002 -0.89514,2.14367 -1.11914,3.263672 -0.0639,-1.44 -0.0966,-2.97572 -0.0645,-4.511718 0.384,-1.632001 1.05664,-5.088106 1.05664,-6.91211 0,-1.855997 -0.2249,-3.072266 -1.21679,-3.072266 z m -29.25391,9.087891 c 0.73602,0 1.75976,1.247672 1.75976,3.263672 0,0.96 -0.12693,1.921156 -0.38281,2.785156 h -0.002 -0.0312 c -1.92,0 -2.81445,-2.08103 -2.81445,-3.457031 0,-1.664001 0.76672,-2.591797 1.4707,-2.591797 z m 44.2207,0.287109 c 0.768,0 1.05648,0.609547 1.3125,1.185547 0.0302,0.03213 0.0645,0.09494 0.0645,0.126953 0.0302,0 0.0293,0.0332 0.0293,0.0332 -0.15987,0.607997 -0.57588,2.142485 -1.08789,3.646484 h 0.002 c -1.05601,3.072 -1.72716,3.423828 -1.95118,3.423828 -0.0639,-0.03213 -0.28893,-0.3187 -0.54492,-1.054687 -0.22412,-0.704002 -0.32031,-1.536237 -0.32031,-2.240235 0,-1.408002 0.3206,-2.720138 0.89648,-3.74414 0.48,-0.831999 1.11961,-1.376954 1.59961,-1.376954 z m -46.42968,4.25586 c 0.15983,0.351987 0.31906,0.67219 0.54296,0.992187 0.48,0.672 1.31225,1.44111 2.65625,1.53711 -0.51201,1.119998 -1.18347,1.728515 -1.85547,1.728515 -0.28796,0 -0.54432,-0.12954 -0.73632,-0.353515 -0.576,-0.735999 -0.70342,-2.368297 -0.60742,-3.904297 z"
         transform="matrix(0.26458333,0,0,0.26458333,69.504525,77.543205)" />
    </g>
    <g
       transform="translate(0,-20.635722)"
       aria-label="La historia de la concha"
       id="text12-5"
       style="font-style:normal;font-variant:normal;font-weight:normal;font-stretch:normal;font-size:8.46667px;line-height:1.25;font-family:'Michella Garden';-inkscape-font-specification:'Michella Garden';letter-spacing:0px;word-spacing:0px;fill:#000000;fill-opacity:0.963768;stroke:none;stroke-width:0.264583">
      <path
         d="m 73.936285,85.960678 c -0.457201,0 -0.999068,-0.160867 -1.473201,-0.313267 -0.0085,0 -0.0254,-0.0085 -0.03387,-0.0085 0.245534,-0.440267 0.381,-1.109134 0.381,-1.921934 0,-0.220133 -0.0085,-0.643467 -0.01693,-0.956734 0,-0.186266 -0.0085,-0.338667 -0.0085,-0.381 0,-0.160867 0.0085,-0.651933 0.03387,-0.753534 0.01693,-0.08467 -0.03387,-0.1524 -0.135467,-0.186266 -0.127,-0.04233 -0.347133,-0.0254 -0.423333,0.135466 -0.05927,0.135467 -0.09313,0.330201 -0.09313,0.651934 0,0.04233 0,0.2032 0.0085,0.414867 0,0.381 0.0085,0.9652 0.0085,1.2192 0,0.762001 -0.1016,1.295401 -0.245534,1.634068 -0.135466,-0.03387 -0.262466,-0.0508 -0.364066,-0.0508 -0.338667,0 -0.491067,0.2032 -0.491067,0.4064 0,0.287867 0.254,0.389467 0.474133,0.389467 0.254,0 0.4826,-0.110067 0.668867,-0.321734 0.118534,0.04233 0.237067,0.09313 0.347134,0.1524 0.364066,0.160867 0.702733,0.313267 0.956733,0.313267 0.296334,0 0.516467,-0.194733 0.516467,-0.3302 0,-0.04233 -0.0254,-0.09313 -0.110066,-0.09313 z m -2.523068,-0.110067 c 0,-0.0762 0.06773,-0.118534 0.127,-0.118534 0.0762,0 0.160867,0.0085 0.254,0.03387 -0.08467,0.118534 -0.186267,0.169334 -0.2794,0.169334 -0.06773,0 -0.1016,-0.04233 -0.1016,-0.08467 z"
         style="font-style:normal;font-variant:normal;font-weight:normal;font-stretch:normal;font-family:'Michella Garden';-inkscape-font-specification:'Michella Garden';fill:#000000;fill-opacity:0.963768;stroke:none;stroke-width:0.264583"
         id="path837-3" />
      <path
         d="m 76.980582,83.79321 c -0.05927,-0.01693 -0.143934,0.0254 -0.1524,0.1016 -0.03387,0.1778 -0.135467,0.618067 -0.279401,1.007534 -0.1524,0.4064 -0.313266,0.626533 -0.465666,0.626533 -0.03387,0 -0.05927,-0.01693 -0.08467,-0.04233 -0.237067,-0.254 -0.1524,-1.447801 -0.1016,-2.023534 0.0085,-0.1778 0.01693,-0.3048 0.01693,-0.3556 -0.0085,-0.169334 -0.194733,-0.254 -0.3556,-0.254 -0.135467,0.0085 -0.2286,0.06773 -0.2286,0.160866 0,0.01693 0,0.04233 -0.0085,0.08467 -0.09313,-0.127 -0.254,-0.245533 -0.508,-0.245533 -0.254,0 -0.567267,0.186266 -0.8128,0.474133 -0.296334,0.338667 -0.448734,0.762 -0.448734,1.185334 0,0.423333 0.08467,0.770467 0.245534,1.007534 0.1524,0.2032 0.364066,0.321733 0.592667,0.321733 0.3048,0 0.5842,-0.321733 0.821267,-0.948267 0.0085,-0.04233 0.0254,-0.08467 0.04233,-0.127 0.04233,0.381 0.143933,0.668867 0.3048,0.846667 0.135467,0.1524 0.313267,0.2286 0.524934,0.2286 0.2794,0 0.524933,-0.296333 0.745067,-0.889 0.0762,-0.220134 0.135466,-0.440267 0.1778,-0.626534 0.04233,-0.1778 0.06773,-0.313267 0.0762,-0.364067 0.01693,-0.1016 -0.04233,-0.160866 -0.1016,-0.169333 z m -2.006601,0.745067 c -0.2794,0.8128 -0.4572,0.905934 -0.516467,0.905934 -0.01693,-0.0085 -0.0762,-0.08467 -0.143933,-0.2794 -0.05927,-0.186267 -0.08467,-0.406401 -0.08467,-0.592667 0,-0.372534 0.08467,-0.719667 0.237067,-0.990601 0.127,-0.220133 0.296333,-0.364067 0.423333,-0.364067 0.2032,0 0.2794,0.160867 0.347134,0.313267 0.0085,0.0085 0.01693,0.0254 0.01693,0.03387 0.0085,0 0.0085,0.0085 0.0085,0.0085 -0.04233,0.160866 -0.1524,0.567267 -0.287867,0.9652 z"
         style="font-style:normal;font-variant:normal;font-weight:normal;font-stretch:normal;font-family:'Michella Garden';-inkscape-font-specification:'Michella Garden';fill:#000000;fill-opacity:0.963768;stroke:none;stroke-width:0.264583"
         id="path839-2" />
      <path
         d="m 82.376629,83.81861 c -0.03387,-0.03387 -0.0762,-0.0508 -0.127,-0.04233 -0.0508,0.0085 -0.09313,0.05927 -0.110067,0.118533 -0.0085,0.03387 -0.0254,0.09313 -0.04233,0.186267 -0.05927,0.254 -0.169333,0.7366 -0.321733,1.143 -0.1778,0.474134 -0.372533,0.719667 -0.550334,0.719667 -0.0254,0 -0.0508,-0.0085 -0.06773,-0.0254 -0.118533,-0.127 -0.08467,-0.643467 -0.05927,-1.143 0.04233,-0.677334 0.09313,-1.456267 -0.186266,-1.752601 -0.0762,-0.0762 -0.1778,-0.118533 -0.287867,-0.118533 -0.321734,0 -0.635,0.287866 -0.889,0.804333 -0.135467,0.262467 -0.237067,0.567267 -0.296334,0.863601 -0.01693,-0.381 -0.0254,-0.787401 -0.01693,-1.193801 0.1016,-0.4318 0.2794,-1.3462 0.2794,-1.828801 0,-0.491066 -0.05927,-0.8128 -0.321734,-0.8128 -0.211666,0 -0.364066,0.3048 -0.465666,0.931334 -0.0762,0.491067 -0.101601,1.0922 -0.101601,1.490134 0,0.635 0.06773,1.566334 0.203201,2.616201 v 0.0254 c 0.01693,0.110067 0.169333,0.186267 0.3048,0.186267 0.01693,0 0.03387,0 0.04233,-0.0085 0.118533,-0.0085 0.186267,-0.08467 0.1778,-0.186267 0,-0.524933 0.110067,-1.126067 0.313267,-1.642534 0.186267,-0.491067 0.381,-0.7366 0.4826,-0.7366 0.03387,0 0.05927,0.0085 0.0762,0.0254 0.118534,0.118533 0.09313,0.516467 0.06773,0.9398 -0.03387,0.626534 -0.06773,1.337734 0.254001,1.676401 0.118533,0.127 0.2794,0.186267 0.4826,0.186267 0.313267,0 0.592667,-0.3048 0.829733,-0.922867 0.186267,-0.474134 0.296334,-0.999067 0.338667,-1.227668 0.0085,-0.0508 0.01693,-0.09313 0.0254,-0.1016 0.01693,-0.05927 0.0085,-0.127 -0.03387,-0.169333 z"
         style="font-style:normal;font-variant:normal;font-weight:normal;font-stretch:normal;font-family:'Michella Garden';-inkscape-font-specification:'Michella Garden';fill:#000000;fill-opacity:0.963768;stroke:none;stroke-width:0.264583"
         id="path841-0" />
      <path
         d="m 83.881314,83.79321 c -0.06773,-0.01693 -0.1524,0.0254 -0.169333,0.1016 -0.04233,0.220133 -0.135467,0.651934 -0.262467,1.007534 -0.1524,0.4064 -0.313267,0.626533 -0.465667,0.626533 -0.0254,0 -0.0508,-0.0085 -0.0762,-0.03387 -0.05927,-0.06773 -0.135467,-0.245534 -0.160867,-0.728134 -0.01693,-0.338667 0,-0.7112 0.0085,-0.9652 0.0085,-0.135467 0.0085,-0.2286 0.0085,-0.2794 -0.0085,-0.169334 -0.211667,-0.254001 -0.397934,-0.245534 -0.1524,0 -0.245533,0.06773 -0.245533,0.160867 0,0.01693 -0.0085,0.0508 -0.0085,0.1016 -0.03387,0.389467 -0.127,1.574801 0.338667,2.074334 0.135467,0.1524 0.313267,0.2286 0.5334,0.2286 0.2794,0 0.524934,-0.296333 0.7366,-0.889 0.08467,-0.220134 0.143934,-0.440267 0.186267,-0.626534 0.04233,-0.1778 0.06773,-0.313267 0.0762,-0.364067 0.01693,-0.1016 -0.04233,-0.160866 -0.1016,-0.169333 z M 82.34038,83.124343 c 0.03387,0.01693 0.0762,0.0254 0.127,0.0254 0.06773,0 0.143934,-0.01693 0.194734,-0.06773 0.110066,-0.110067 0.118533,-0.254 0.08467,-0.3302 -0.0508,-0.110067 -0.143933,-0.169334 -0.254,-0.169334 -0.0508,0 -0.110067,0.01693 -0.1524,0.0508 -0.04233,0.0254 -0.0762,0.06773 -0.1016,0.118534 -0.04233,0.110066 -0.01693,0.287866 0.1016,0.372533 z"
         style="font-style:normal;font-variant:normal;font-weight:normal;font-stretch:normal;font-family:'Michella Garden';-inkscape-font-specification:'Michella Garden';fill:#000000;fill-opacity:0.963768;stroke:none;stroke-width:0.264583"
         id="path843-3" />
      <path
         d="m 85.909479,83.81861 c -0.0508,-0.04233 -0.143933,-0.04233 -0.262467,0.06773 -0.0254,0.0254 -0.08467,0.0762 -0.160866,0.135467 -0.177801,0.1524 -0.474134,0.397934 -0.736601,0.6604 -0.03387,-0.0508 -0.0762,-0.1016 -0.110066,-0.160866 -0.245534,-0.3556 -0.499534,-0.719667 -0.499534,-1.049867 0,-0.237067 0.135467,-0.406401 0.313267,-0.406401 0.1524,0 0.237067,0.1016 0.313267,0.194734 0.05927,0.08467 0.127,0.08467 0.1778,0.0508 0.0254,-0.01693 0.0508,-0.05927 0.0508,-0.1016 0,-0.0254 -0.0085,-0.05927 -0.0254,-0.09313 -0.127,-0.2032 -0.3048,-0.4064 -0.635001,-0.4064 -0.2032,0 -0.397933,0.05927 -0.541866,0.169334 -0.177801,0.127 -0.262467,0.321733 -0.262467,0.5588 0,0.423333 0.287867,0.8128 0.567267,1.1938 0.110066,0.1524 0.220133,0.3048 0.313266,0.448734 -0.194733,0.254 -0.287866,0.4826 -0.287866,0.668867 0,0.321733 0.211666,0.491067 0.414867,0.491067 0.211666,0 0.5588,-0.347134 0.5588,-0.753534 0,-0.1778 -0.0762,-0.3556 -0.186267,-0.550334 0.296333,-0.321733 0.6604,-0.626533 0.855134,-0.7874 0.118533,-0.1016 0.160866,-0.127 0.169333,-0.1524 0.04233,-0.05927 0.0254,-0.135467 -0.0254,-0.177801 z m -1.3716,2.142068 c -0.05927,0 -0.08467,-0.118534 -0.08467,-0.211667 0,-0.110067 0.04233,-0.2286 0.110067,-0.3556 0.03387,0.1016 0.0508,0.194733 0.0508,0.287866 0,0.194734 -0.03387,0.279401 -0.0762,0.279401 z"
         style="font-style:normal;font-variant:normal;font-weight:normal;font-stretch:normal;font-family:'Michella Garden';-inkscape-font-specification:'Michella Garden';fill:#000000;fill-opacity:0.963768;stroke:none;stroke-width:0.264583"
         id="path845-0" />
      <path
         d="m 86.378718,82.531676 c 0.169333,0.01693 0.313266,0.03387 0.423333,0.03387 0.313267,0 0.5588,-0.05927 0.728134,-0.186267 0.05927,-0.0508 0.0762,-0.135467 0.0254,-0.194733 -0.04233,-0.05927 -0.127,-0.0762 -0.186267,-0.0254 -0.127,0.08467 -0.313267,0.135466 -0.567267,0.135466 -0.09313,0 -0.220133,-0.01693 -0.372533,-0.03387 0.03387,-0.254 0.05927,-0.508 0.05927,-0.711201 v -0.0254 c 0,-0.135466 0,-0.321733 -0.03387,-0.4826 -0.04233,-0.2032 -0.143934,-0.3048 -0.2794,-0.3048 -0.262467,0 -0.457201,0.541867 -0.533401,1.405467 -0.2032,-0.03387 -0.804333,-0.08467 -0.9398,-0.08467 -0.364067,0 -0.6604,0.04233 -0.829734,0.2794 -0.0508,0.05927 -0.03387,0.143933 0.0254,0.194733 0.0254,0.01693 0.0508,0.0254 0.08467,0.0254 0.04233,0 0.08467,-0.0254 0.110067,-0.05927 0.0762,-0.101601 0.254,-0.160867 0.6096,-0.160867 0.127,0 0.719667,0.0508 0.9144,0.0762 -0.0085,0.2032 -0.01693,0.414867 -0.01693,0.643467 0,1.151467 0.194733,1.862667 0.3556,2.252134 0.186267,0.474133 0.448734,0.753534 0.702734,0.753534 0.194733,0 0.397933,-0.330201 0.618067,-1.016001 0.160866,-0.491067 0.270933,-1.024467 0.287866,-1.126067 0.01693,-0.0762 -0.0254,-0.143933 -0.1016,-0.1524 -0.06773,-0.01693 -0.1524,0.0254 -0.1778,0.127 -0.110066,0.4572 -0.237066,0.905934 -0.372533,1.278467 -0.143933,0.397934 -0.237067,0.541867 -0.270934,0.567267 -0.0085,0 -0.03387,-0.01693 -0.0508,-0.03387 -0.135466,-0.1524 -0.245533,-0.702733 -0.3048,-1.464733 -0.0254,-0.330201 -0.03387,-0.685801 -0.03387,-1.032934 0.0085,-0.0254 0.01693,-0.0508 0.01693,-0.08467 0.03387,-0.169333 0.0762,-0.381 0.110067,-0.592667 z"
         style="font-style:normal;font-variant:normal;font-weight:normal;font-stretch:normal;font-family:'Michella Garden';-inkscape-font-specification:'Michella Garden';fill:#000000;fill-opacity:0.963768;stroke:none;stroke-width:0.264583"
         id="path847-7" />
      <path
         d="m 92.833364,83.784743 c -0.06773,-0.01693 -0.160867,0.01693 -0.1778,0.110067 -0.03387,0.135467 -0.1524,0.592667 -0.321734,1.024467 -0.2794,0.719667 -0.465667,0.829734 -0.5588,0.829734 -0.135467,0 -0.194734,-0.160867 -0.2032,-0.541867 0,-0.2032 0.01693,-0.423334 0.0254,-0.6604 0.01693,-0.3556 0.04233,-0.719667 0.0085,-0.999067 -0.04233,-0.338667 -0.143933,-0.524934 -0.3302,-0.567267 -0.186266,-0.03387 -0.397933,-0.05927 -0.601133,-0.08467 -0.143934,-0.01693 -0.2794,-0.03387 -0.414867,-0.0508 0,-0.2794 -0.0508,-0.524934 -0.169333,-0.668867 -0.06773,-0.08467 -0.160867,-0.127 -0.270934,-0.127 -0.2286,0 -0.414867,0.2286 -0.414867,0.499534 0,0.237066 0.186267,0.423333 0.474134,0.4826 0.0085,0 0.0508,0.0085 0.110067,0.01693 -0.06773,0.7366 -0.499534,1.481667 -0.863601,1.625601 0.05927,-0.262467 0.08467,-0.516467 0.08467,-0.702734 0,-0.186267 -0.0508,-0.474133 -0.186267,-0.7112 -0.1524,-0.262467 -0.364067,-0.4064 -0.626533,-0.4064 -0.177801,0 -0.347134,0.09313 -0.465667,0.254 -0.0508,0.06773 -0.09313,0.143933 -0.118534,0.2286 -0.0085,0 -0.0085,0 -0.0085,0 -0.160867,-0.05927 -0.406401,0.03387 -0.448734,0.110067 -0.135467,0.254 -0.220133,0.6096 -0.220133,0.973667 -0.0085,0.381 0.06773,0.7366 0.220133,0.9906 0.169334,0.2794 0.414867,0.4318 0.719667,0.4318 0.381,0 0.702734,-0.245533 0.905934,-0.728133 0.01693,-0.03387 0.0254,-0.05927 0.04233,-0.1016 0.448734,-0.127001 1.041401,-0.668867 1.219201,-1.921935 0.08467,0.01693 0.160866,0.0254 0.1778,0.0254 0.220133,0.03387 0.4318,0.06773 0.491067,0.08467 0.1524,0.04233 0.127,0.321734 0.09313,0.829734 -0.01693,0.3048 -0.04233,0.677333 -0.04233,1.143 0,0.516467 0.338666,0.889001 0.8128,0.889001 0.287867,0 0.567267,-0.355601 0.829734,-1.049867 0.194733,-0.516467 0.313266,-1.041401 0.321733,-1.100668 0.01693,-0.05927 -0.0254,-0.118533 -0.09313,-0.127 z m -4.631269,1.684868 c -0.0762,0 -0.143933,-0.03387 -0.194733,-0.09313 -0.1524,-0.194733 -0.186267,-0.626533 -0.160867,-1.032933 0.04233,0.09313 0.08467,0.1778 0.143933,0.262466 0.127,0.1778 0.347134,0.381001 0.702734,0.406401 -0.135467,0.296333 -0.313267,0.4572 -0.491067,0.4572 z m 0.592667,-0.728134 c 0,0 -0.0085,0 -0.0085,0 -0.508,0 -0.745067,-0.550333 -0.745067,-0.9144 0,-0.440267 0.2032,-0.685801 0.389467,-0.685801 0.194734,0 0.465667,0.330201 0.465667,0.863601 0,0.254 -0.03387,0.508 -0.1016,0.7366 z m 0.889,-2.192867 c 0,-0.101601 0.05927,-0.228601 0.135467,-0.228601 0.03387,0 0.0508,0.01693 0.0762,0.04233 0.05927,0.0762 0.09313,0.237067 0.1016,0.423333 -0.186267,-0.0508 -0.313267,-0.118533 -0.313267,-0.237066 z"
         style="font-style:normal;font-variant:normal;font-weight:normal;font-stretch:normal;font-family:'Michella Garden';-inkscape-font-specification:'Michella Garden';fill:#000000;fill-opacity:0.963768;stroke:none;stroke-width:0.264583"
         id="path849-4" />
      <path
         d="m 94.398507,83.79321 c -0.06773,-0.01693 -0.1524,0.0254 -0.169334,0.1016 -0.04233,0.220133 -0.135466,0.651934 -0.262466,1.007534 -0.1524,0.4064 -0.313267,0.626533 -0.465667,0.626533 -0.0254,0 -0.0508,-0.0085 -0.0762,-0.03387 -0.05927,-0.06773 -0.135467,-0.245534 -0.160867,-0.728134 -0.01693,-0.338667 0,-0.7112 0.0085,-0.9652 0.0085,-0.135467 0.0085,-0.2286 0.0085,-0.2794 -0.0085,-0.169334 -0.211666,-0.254001 -0.397933,-0.245534 -0.1524,0 -0.245533,0.06773 -0.245533,0.160867 0,0.01693 -0.0085,0.0508 -0.0085,0.1016 -0.03387,0.389467 -0.127,1.574801 0.338667,2.074334 0.135466,0.1524 0.313266,0.2286 0.5334,0.2286 0.2794,0 0.524933,-0.296333 0.7366,-0.889 0.08467,-0.220134 0.143934,-0.440267 0.186267,-0.626534 0.04233,-0.1778 0.06773,-0.313267 0.0762,-0.364067 0.01693,-0.1016 -0.04233,-0.160866 -0.1016,-0.169333 z m -1.540934,-0.668867 c 0.03387,0.01693 0.0762,0.0254 0.127,0.0254 0.06773,0 0.143933,-0.01693 0.194733,-0.06773 0.110067,-0.110067 0.118534,-0.254 0.08467,-0.3302 -0.0508,-0.110067 -0.143933,-0.169334 -0.254,-0.169334 -0.0508,0 -0.110067,0.01693 -0.1524,0.0508 -0.04233,0.0254 -0.0762,0.06773 -0.1016,0.118534 -0.04233,0.110066 -0.01693,0.287866 0.1016,0.372533 z"
         style="font-style:normal;font-variant:normal;font-weight:normal;font-stretch:normal;font-family:'Michella Garden';-inkscape-font-specification:'Michella Garden';fill:#000000;fill-opacity:0.963768;stroke:none;stroke-width:0.264583"
         id="path851-0" />
      <path
         d="m 97.51887,83.79321 c -0.05927,-0.01693 -0.143933,0.0254 -0.1524,0.1016 -0.03387,0.1778 -0.135466,0.618067 -0.2794,1.007534 -0.1524,0.4064 -0.313267,0.626533 -0.465667,0.626533 -0.03387,0 -0.05927,-0.01693 -0.08467,-0.04233 -0.237067,-0.254 -0.1524,-1.447801 -0.1016,-2.023534 0.0085,-0.1778 0.01693,-0.3048 0.01693,-0.3556 -0.0085,-0.169334 -0.194733,-0.254 -0.3556,-0.254 -0.135467,0.0085 -0.2286,0.06773 -0.2286,0.160866 0,0.01693 0,0.04233 -0.0085,0.08467 -0.09313,-0.127 -0.254,-0.245533 -0.508,-0.245533 -0.254,0 -0.567267,0.186266 -0.8128,0.474133 -0.296334,0.338667 -0.448734,0.762 -0.448734,1.185334 0,0.423333 0.08467,0.770467 0.245533,1.007534 0.152401,0.2032 0.364067,0.321733 0.592667,0.321733 0.304801,0 0.584201,-0.321733 0.821267,-0.948267 0.0085,-0.04233 0.0254,-0.08467 0.04233,-0.127 0.04233,0.381 0.143933,0.668867 0.3048,0.846667 0.135467,0.1524 0.313267,0.2286 0.524933,0.2286 0.279401,0 0.524934,-0.296333 0.745067,-0.889 0.0762,-0.220134 0.135467,-0.440267 0.1778,-0.626534 0.04233,-0.1778 0.06773,-0.313267 0.0762,-0.364067 0.01693,-0.1016 -0.04233,-0.160866 -0.1016,-0.169333 z m -2.0066,0.745067 c -0.2794,0.8128 -0.457201,0.905934 -0.516467,0.905934 -0.01693,-0.0085 -0.0762,-0.08467 -0.143934,-0.2794 -0.05927,-0.186267 -0.08467,-0.406401 -0.08467,-0.592667 0,-0.372534 0.08467,-0.719667 0.237066,-0.990601 0.127,-0.220133 0.296334,-0.364067 0.423334,-0.364067 0.2032,0 0.2794,0.160867 0.347133,0.313267 0.0085,0.0085 0.01693,0.0254 0.01693,0.03387 0.0085,0 0.0085,0.0085 0.0085,0.0085 -0.04233,0.160866 -0.1524,0.567267 -0.287866,0.9652 z"
         style="font-style:normal;font-variant:normal;font-weight:normal;font-stretch:normal;font-family:'Michella Garden';-inkscape-font-specification:'Michella Garden';fill:#000000;fill-opacity:0.963768;stroke:none;stroke-width:0.264583"
         id="path853-8" />
      <path
         d="m 102.69479,83.79321 c -0.0593,-0.01693 -0.13547,0.0254 -0.1524,0.1016 -0.008,0.0254 -0.0169,0.05927 -0.0169,0.08467 -0.0508,0.270933 -0.1524,0.770467 -0.2794,1.1938 -0.2032,0.660401 -0.36407,0.753534 -0.44873,0.753534 0,0 -0.0169,0 -0.0423,-0.0254 -0.127,-0.160867 -0.19473,-0.846667 -0.1778,-1.888068 0.008,-0.220133 0.008,-0.448733 0.0254,-0.668866 0.11007,-0.465667 0.2794,-1.312334 0.2794,-1.794935 0,-0.321733 -0.0339,-0.541866 -0.0931,-0.668866 -0.0677,-0.135467 -0.16087,-0.143934 -0.2286,-0.143934 -0.21167,0 -0.36407,0.313267 -0.46567,0.965201 -0.0762,0.4826 -0.1016,1.0414 -0.1016,1.2954 0,0.0085 0,0.0254 0,0.04233 -0.1016,-0.1016 -0.24553,-0.186266 -0.46566,-0.186266 -0.254,0 -0.567269,0.186266 -0.812803,0.474133 -0.296333,0.338667 -0.448733,0.762 -0.448733,1.185334 0,0.423333 0.08467,0.770467 0.245533,1.007534 0.1524,0.2032 0.364067,0.321733 0.592663,0.321733 0.3048,0 0.5842,-0.321733 0.82127,-0.948267 0.0339,-0.08467 0.0593,-0.1778 0.0931,-0.270933 0.0677,0.7366 0.21167,1.236134 0.4318,1.464734 0.1016,0.1016 0.22014,0.1524 0.34714,0.1524 0.2794,0 0.52493,-0.364067 0.74507,-1.092201 0.1524,-0.5334 0.23706,-1.083734 0.254,-1.185334 0.0169,-0.1016 -0.0339,-0.160866 -0.1016,-0.169333 z m -2.00661,0.745067 c -0.2794,0.8128 -0.44873,0.905934 -0.51646,0.905934 -0.0169,-0.0085 -0.0762,-0.08467 -0.14394,-0.2794 -0.0508,-0.186267 -0.08466,-0.406401 -0.08466,-0.592667 0,-0.372534 0.08466,-0.719667 0.23706,-0.990601 0.127,-0.220133 0.29634,-0.364067 0.42334,-0.364067 0.2032,0 0.2794,0.160867 0.34713,0.313267 0.008,0.0085 0.0169,0.0254 0.0169,0.03387 0.008,0 0.008,0.0085 0.008,0.0085 -0.0423,0.160866 -0.1524,0.567267 -0.28787,0.9652 z"
         style="font-style:normal;font-variant:normal;font-weight:normal;font-stretch:normal;font-family:'Michella Garden';-inkscape-font-specification:'Michella Garden';fill:#000000;fill-opacity:0.963768;stroke:none;stroke-width:0.264583"
         id="path855-9" />
      <path
         d="m 104.73684,83.827077 c -0.0339,-0.03387 -0.0847,-0.0508 -0.13547,-0.04233 -0.0508,0.01693 -0.0847,0.0508 -0.1016,0.110067 -0.0169,0.0508 -0.16933,0.474134 -0.37253,0.880534 -0.33867,0.694267 -0.5334,0.762 -0.60113,0.762 -0.0762,0 -0.2032,-0.1016 -0.31327,-0.338667 -0.11853,-0.254 -0.18627,-0.575733 -0.18627,-0.905933 0,-0.05927 0,-0.110067 0.008,-0.160867 0,0 0,0 0,0 0.008,-0.0085 0.0169,-0.0085 0.0254,-0.0085 0.64347,-0.1524 0.77893,-0.524933 0.77893,-0.821267 0,-0.135467 -0.0508,-0.262467 -0.16086,-0.3556 -0.1016,-0.08467 -0.23707,-0.135467 -0.381,-0.135467 -0.26247,0 -0.49107,0.135467 -0.66041,0.397934 -0.1778,0.262467 -0.26246,0.643467 -0.26246,1.083734 0,1.0668 0.66887,1.5494 1.143,1.5494 0.254,0 0.52493,-0.262467 0.79587,-0.778933 0.23706,-0.448734 0.39793,-0.948268 0.44873,-1.092201 0.0169,-0.05927 0.008,-0.110067 -0.0254,-0.143933 z m -1.55787,-0.364067 c 0.0847,-0.211667 0.16934,-0.296334 0.19474,-0.3048 0.0339,0.0085 0.0423,0.118533 0.0423,0.1524 0,0.321733 -0.19473,0.465667 -0.34713,0.524933 0.0339,-0.160866 0.0677,-0.2794 0.11006,-0.372533 z"
         style="font-style:normal;font-variant:normal;font-weight:normal;font-stretch:normal;font-family:'Michella Garden';-inkscape-font-specification:'Michella Garden';fill:#000000;fill-opacity:0.963768;stroke:none;stroke-width:0.264583"
         id="path857-8" />
      <path
         d="m 108.37341,83.76781 c -0.0677,-0.01693 -0.1524,0.0254 -0.1778,0.127 -0.11007,0.4572 -0.24554,0.905934 -0.381,1.278467 -0.14394,0.397934 -0.2286,0.541867 -0.26247,0.567267 -0.0169,0 -0.0339,-0.01693 -0.0508,-0.03387 -0.13547,-0.1524 -0.254,-0.702733 -0.3048,-1.464733 -0.0254,-0.330201 -0.0339,-0.685801 -0.0339,-1.032934 0,-0.0254 0.008,-0.0508 0.0169,-0.08467 0.0847,-0.440267 0.22013,-1.1176 0.22013,-1.574801 v -0.0254 c 0,-0.135466 0,-0.321733 -0.0339,-0.4826 -0.0508,-0.2032 -0.14393,-0.3048 -0.28786,-0.3048 -0.33867,0 -0.56727,0.948267 -0.56727,2.319868 0,1.151467 0.18627,1.862667 0.34713,2.252134 0.19474,0.474133 0.4572,0.753534 0.70274,0.753534 0.2032,0 0.4064,-0.330201 0.62653,-1.016001 0.1524,-0.491067 0.27093,-1.024467 0.28787,-1.126067 0.0169,-0.0762 -0.0254,-0.143933 -0.1016,-0.1524 z"
         style="font-style:normal;font-variant:normal;font-weight:normal;font-stretch:normal;font-family:'Michella Garden';-inkscape-font-specification:'Michella Garden';fill:#000000;fill-opacity:0.963768;stroke:none;stroke-width:0.264583"
         id="path859-2" />
      <path
         d="m 111.49218,83.79321 c -0.0593,-0.01693 -0.14393,0.0254 -0.1524,0.1016 -0.0339,0.1778 -0.13546,0.618067 -0.2794,1.007534 -0.1524,0.4064 -0.31326,0.626533 -0.46566,0.626533 -0.0339,0 -0.0593,-0.01693 -0.0847,-0.04233 -0.23707,-0.254 -0.1524,-1.447801 -0.1016,-2.023534 0.008,-0.1778 0.0169,-0.3048 0.0169,-0.3556 -0.008,-0.169334 -0.19473,-0.254 -0.3556,-0.254 -0.13546,0.0085 -0.2286,0.06773 -0.2286,0.160866 0,0.01693 0,0.04233 -0.008,0.08467 -0.0931,-0.127 -0.254,-0.245533 -0.508,-0.245533 -0.254,0 -0.56727,0.186266 -0.8128,0.474133 -0.29634,0.338667 -0.44874,0.762 -0.44874,1.185334 0,0.423333 0.0847,0.770467 0.24554,1.007534 0.1524,0.2032 0.36406,0.321733 0.59266,0.321733 0.3048,0 0.5842,-0.321733 0.82127,-0.948267 0.008,-0.04233 0.0254,-0.08467 0.0423,-0.127 0.0423,0.381 0.14394,0.668867 0.3048,0.846667 0.13547,0.1524 0.31327,0.2286 0.52494,0.2286 0.2794,0 0.52493,-0.296333 0.74506,-0.889 0.0762,-0.220134 0.13547,-0.440267 0.1778,-0.626534 0.0423,-0.1778 0.0677,-0.313267 0.0762,-0.364067 0.0169,-0.1016 -0.0423,-0.160866 -0.1016,-0.169333 z m -2.0066,0.745067 c -0.2794,0.8128 -0.4572,0.905934 -0.51646,0.905934 -0.0169,-0.0085 -0.0762,-0.08467 -0.14394,-0.2794 -0.0593,-0.186267 -0.0847,-0.406401 -0.0847,-0.592667 0,-0.372534 0.0847,-0.719667 0.23706,-0.990601 0.127,-0.220133 0.29634,-0.364067 0.42334,-0.364067 0.2032,0 0.2794,0.160867 0.34713,0.313267 0.008,0.0085 0.0169,0.0254 0.0169,0.03387 0.008,0 0.008,0.0085 0.008,0.0085 -0.0423,0.160866 -0.1524,0.567267 -0.28787,0.9652 z"
         style="font-style:normal;font-variant:normal;font-weight:normal;font-stretch:normal;font-family:'Michella Garden';-inkscape-font-specification:'Michella Garden';fill:#000000;fill-opacity:0.963768;stroke:none;stroke-width:0.264583"
         id="path861-4" />
      <path
         d="m 116.25323,83.835543 c -0.0254,-0.04233 -0.0677,-0.06773 -0.11853,-0.05927 -0.0508,0 -0.1016,0.03387 -0.13547,0.09313 -0.1016,0.211667 -0.89747,1.574801 -1.48167,1.574801 -0.34713,0 -0.57573,-0.448734 -0.57573,-0.872067 0,-0.372534 0.0847,-0.719667 0.24553,-0.990601 0.127,-0.220133 0.29633,-0.364067 0.42333,-0.364067 0.2032,0 0.2794,0.160867 0.34714,0.313267 0.008,0.0085 0.008,0.0254 0.0169,0.03387 0.0339,0.0762 0.0847,0.08467 0.127,0.05927 0.0762,-0.03387 0.127,-0.1778 0.0847,-0.254 0,-0.0085 -0.008,-0.01693 -0.008,-0.03387 -0.0677,-0.143934 -0.21167,-0.4826 -0.64347,-0.4826 -0.29633,0 -0.62653,0.1778 -0.87206,0.474133 -0.2794,0.3302 -0.42334,0.745067 -0.42334,1.185334 0,0.922867 0.60114,1.329267 1.21074,1.329267 0.38946,0 0.8128,-0.4064 1.15147,-0.8382 0.33866,-0.440267 0.59266,-0.897467 0.64346,-0.990601 0.0508,-0.09313 0.0254,-0.1524 0.008,-0.1778 z"
         style="font-style:normal;font-variant:normal;font-weight:normal;font-stretch:normal;font-family:'Michella Garden';-inkscape-font-specification:'Michella Garden';fill:#000000;fill-opacity:0.963768;stroke:none;stroke-width:0.264583"
         id="path863-5" />
      <path
         d="m 118.85713,83.801677 c -0.0508,-0.03387 -0.13547,-0.03387 -0.22014,0.0762 -0.0169,0.0254 -0.0339,0.05927 -0.0593,0.09313 -0.11854,0.194734 -0.34714,0.5588 -0.71967,0.702734 0.0593,-0.262467 0.0847,-0.516467 0.0847,-0.702734 0,-0.186267 -0.0508,-0.474133 -0.18627,-0.7112 -0.1524,-0.262467 -0.36407,-0.4064 -0.62653,-0.4064 -0.1778,0 -0.34714,0.09313 -0.46567,0.254 -0.0508,0.06773 -0.0931,0.143933 -0.11853,0.2286 -0.008,0 -0.008,0 -0.008,0 -0.16087,-0.05927 -0.4064,0.03387 -0.44873,0.110067 -0.13547,0.254 -0.22014,0.6096 -0.22014,0.973667 -0.008,0.381 0.0677,0.7366 0.22014,0.9906 0.16933,0.2794 0.41486,0.4318 0.71966,0.4318 0.381,0 0.70274,-0.245533 0.90594,-0.728133 0.0169,-0.03387 0.0339,-0.08467 0.0508,-0.127 0.22013,-0.04233 0.4318,-0.160867 0.61806,-0.338667 0.11007,-0.09313 0.2032,-0.2032 0.28787,-0.313267 0.0847,-0.110067 0.1524,-0.220134 0.22013,-0.3302 0.0423,-0.06773 0.0339,-0.160867 -0.0339,-0.2032 z m -1.92194,1.667934 c -0.0762,0 -0.14393,-0.03387 -0.19473,-0.09313 -0.1524,-0.194733 -0.18627,-0.626533 -0.16087,-1.032933 0.0423,0.09313 0.0847,0.1778 0.14394,0.262466 0.127,0.1778 0.34713,0.381001 0.70273,0.406401 -0.13547,0.296333 -0.31327,0.4572 -0.49107,0.4572 z m 0.59267,-0.728134 c 0,0 -0.008,0 -0.008,0 -0.508,0 -0.74506,-0.550333 -0.74506,-0.9144 0,-0.440267 0.2032,-0.685801 0.38946,-0.685801 0.19474,0 0.46567,0.330201 0.46567,0.863601 0,0.254 -0.0339,0.508 -0.1016,0.7366 z"
         style="font-style:normal;font-variant:normal;font-weight:normal;font-stretch:normal;font-family:'Michella Garden';-inkscape-font-specification:'Michella Garden';fill:#000000;fill-opacity:0.963768;stroke:none;stroke-width:0.264583"
         id="path865-8" />
      <path
         d="m 122.05369,83.81861 c -0.0339,-0.03387 -0.0762,-0.0508 -0.127,-0.04233 -0.0508,0.0085 -0.0847,0.05927 -0.11006,0.118533 -0.008,0.03387 -0.0254,0.1016 -0.0423,0.194733 -0.0593,0.279401 -0.16933,0.745067 -0.31326,1.151468 -0.1778,0.4572 -0.36407,0.702733 -0.54187,0.702733 -0.0254,0 -0.0423,-0.0085 -0.0593,-0.0254 -0.11853,-0.127 -0.0931,-0.643467 -0.0593,-1.143 0.0423,-0.677334 0.0847,-1.456267 -0.18627,-1.752601 -0.0762,-0.0762 -0.1778,-0.118533 -0.29633,-0.118533 -0.31327,0 -0.635,0.287866 -0.889,0.804333 -0.0931,0.194734 -0.1778,0.414867 -0.23707,0.635001 0.008,-0.440267 0.0339,-0.736601 0.0508,-0.897467 0.008,-0.0508 0.008,-0.09313 0.0169,-0.118534 0.008,-0.127 -0.0931,-0.220133 -0.254,-0.245533 -0.13546,-0.0254 -0.3048,0.01693 -0.3302,0.135466 -0.0254,0.110067 -0.0931,0.558801 -0.0931,1.227668 0,0.567267 0.0762,1.0668 0.11853,1.312333 0.0254,0.118534 0.1778,0.169334 0.3048,0.169334 0.0169,0 0.0423,0 0.0593,-0.0085 0.11853,-0.01693 0.19473,-0.08467 0.1778,-0.1778 0,-0.0085 0,-0.0254 0,-0.04233 0.008,-0.508 0.127,-1.066801 0.31327,-1.549401 0.1778,-0.491067 0.381,-0.7366 0.4826,-0.7366 0.0339,0 0.0593,0.0085 0.0762,0.0254 0.11006,0.118533 0.0931,0.516467 0.0677,0.9398 -0.0339,0.626534 -0.0677,1.337734 0.254,1.676401 0.11853,0.127 0.2794,0.186267 0.4826,0.186267 0.3048,0 0.5842,-0.3048 0.8128,-0.914401 0.1778,-0.474133 0.28787,-1.007533 0.3302,-1.227667 0.008,-0.0508 0.0254,-0.09313 0.0254,-0.110067 0.0169,-0.05927 0.008,-0.127 -0.0339,-0.169333 z"
         style="font-style:normal;font-variant:normal;font-weight:normal;font-stretch:normal;font-family:'Michella Garden';-inkscape-font-specification:'Michella Garden';fill:#000000;fill-opacity:0.963768;stroke:none;stroke-width:0.264583"
         id="path867-5" />
      <path
         d="m 124.70336,83.835543 c -0.0254,-0.04233 -0.0677,-0.06773 -0.11853,-0.05927 -0.0508,0 -0.1016,0.03387 -0.13547,0.09313 -0.1016,0.211667 -0.89746,1.574801 -1.48166,1.574801 -0.34714,0 -0.57574,-0.448734 -0.57574,-0.872067 0,-0.372534 0.0847,-0.719667 0.24554,-0.990601 0.127,-0.220133 0.29633,-0.364067 0.42333,-0.364067 0.2032,0 0.2794,0.160867 0.34713,0.313267 0.008,0.0085 0.008,0.0254 0.0169,0.03387 0.0339,0.0762 0.0847,0.08467 0.127,0.05927 0.0762,-0.03387 0.127,-0.1778 0.0847,-0.254 0,-0.0085 -0.008,-0.01693 -0.008,-0.03387 -0.0677,-0.143934 -0.21167,-0.4826 -0.64347,-0.4826 -0.29633,0 -0.62653,0.1778 -0.87207,0.474133 -0.2794,0.3302 -0.42333,0.745067 -0.42333,1.185334 0,0.922867 0.60113,1.329267 1.21073,1.329267 0.38947,0 0.8128,-0.4064 1.15147,-0.8382 0.33867,-0.440267 0.59267,-0.897467 0.64347,-0.990601 0.0508,-0.09313 0.0254,-0.1524 0.008,-0.1778 z"
         style="font-style:normal;font-variant:normal;font-weight:normal;font-stretch:normal;font-family:'Michella Garden';-inkscape-font-specification:'Michella Garden';fill:#000000;fill-opacity:0.963768;stroke:none;stroke-width:0.264583"
         id="path869-1" />
      <path
         d="m 127.90152,83.81861 c -0.0339,-0.03387 -0.0762,-0.0508 -0.127,-0.04233 -0.0508,0.0085 -0.0931,0.05927 -0.11007,0.118533 -0.008,0.03387 -0.0254,0.09313 -0.0423,0.186267 -0.0593,0.254 -0.16934,0.7366 -0.32174,1.143 -0.1778,0.474134 -0.37253,0.719667 -0.55033,0.719667 -0.0254,0 -0.0508,-0.0085 -0.0677,-0.0254 -0.11854,-0.127 -0.0847,-0.643467 -0.0593,-1.143 0.0423,-0.677334 0.0931,-1.456267 -0.18627,-1.752601 -0.0762,-0.0762 -0.1778,-0.118533 -0.28787,-0.118533 -0.32173,0 -0.635,0.287866 -0.889,0.804333 -0.13546,0.262467 -0.23706,0.567267 -0.29633,0.863601 -0.0169,-0.381 -0.0254,-0.787401 -0.0169,-1.193801 0.1016,-0.4318 0.2794,-1.3462 0.2794,-1.828801 0,-0.491066 -0.0593,-0.8128 -0.32174,-0.8128 -0.21166,0 -0.36406,0.3048 -0.46566,0.931334 -0.0762,0.491067 -0.1016,1.0922 -0.1016,1.490134 0,0.635 0.0677,1.566334 0.2032,2.616201 v 0.0254 c 0.0169,0.110067 0.16933,0.186267 0.3048,0.186267 0.0169,0 0.0339,0 0.0423,-0.0085 0.11853,-0.0085 0.18627,-0.08467 0.1778,-0.186267 0,-0.524933 0.11007,-1.126067 0.31327,-1.642534 0.18626,-0.491067 0.381,-0.7366 0.4826,-0.7366 0.0339,0 0.0593,0.0085 0.0762,0.0254 0.11853,0.118533 0.0931,0.516467 0.0677,0.9398 -0.0339,0.626534 -0.0677,1.337734 0.254,1.676401 0.11854,0.127 0.2794,0.186267 0.4826,0.186267 0.31327,0 0.59267,-0.3048 0.82974,-0.922867 0.18626,-0.474134 0.29633,-0.999067 0.33866,-1.227668 0.008,-0.0508 0.0169,-0.09313 0.0254,-0.1016 0.0169,-0.05927 0.008,-0.127 -0.0339,-0.169333 z"
         style="font-style:normal;font-variant:normal;font-weight:normal;font-stretch:normal;font-family:'Michella Garden';-inkscape-font-specification:'Michella Garden';fill:#000000;fill-opacity:0.963768;stroke:none;stroke-width:0.264583"
         id="path871-1" />
      <path
         d="m 130.9556,83.79321 c -0.0593,-0.01693 -0.14393,0.0254 -0.1524,0.1016 -0.0339,0.1778 -0.13547,0.618067 -0.2794,1.007534 -0.1524,0.4064 -0.31327,0.626533 -0.46567,0.626533 -0.0339,0 -0.0593,-0.01693 -0.0847,-0.04233 -0.23707,-0.254 -0.1524,-1.447801 -0.1016,-2.023534 0.008,-0.1778 0.0169,-0.3048 0.0169,-0.3556 -0.008,-0.169334 -0.19473,-0.254 -0.3556,-0.254 -0.13547,0.0085 -0.2286,0.06773 -0.2286,0.160866 0,0.01693 0,0.04233 -0.008,0.08467 -0.0931,-0.127 -0.254,-0.245533 -0.508,-0.245533 -0.254,0 -0.56726,0.186266 -0.8128,0.474133 -0.29633,0.338667 -0.44873,0.762 -0.44873,1.185334 0,0.423333 0.0847,0.770467 0.24553,1.007534 0.1524,0.2032 0.36407,0.321733 0.59267,0.321733 0.3048,0 0.5842,-0.321733 0.82127,-0.948267 0.008,-0.04233 0.0254,-0.08467 0.0423,-0.127 0.0423,0.381 0.14393,0.668867 0.3048,0.846667 0.13547,0.1524 0.31327,0.2286 0.52493,0.2286 0.2794,0 0.52494,-0.296333 0.74507,-0.889 0.0762,-0.220134 0.13547,-0.440267 0.1778,-0.626534 0.0423,-0.1778 0.0677,-0.313267 0.0762,-0.364067 0.0169,-0.1016 -0.0423,-0.160866 -0.1016,-0.169333 z m -2.0066,0.745067 c -0.2794,0.8128 -0.4572,0.905934 -0.51647,0.905934 -0.0169,-0.0085 -0.0762,-0.08467 -0.14393,-0.2794 -0.0593,-0.186267 -0.0847,-0.406401 -0.0847,-0.592667 0,-0.372534 0.0847,-0.719667 0.23707,-0.990601 0.127,-0.220133 0.29633,-0.364067 0.42333,-0.364067 0.2032,0 0.2794,0.160867 0.34714,0.313267 0.008,0.0085 0.0169,0.0254 0.0169,0.03387 0.008,0 0.008,0.0085 0.008,0.0085 -0.0423,0.160866 -0.1524,0.567267 -0.28787,0.9652 z"
         style="font-style:normal;font-variant:normal;font-weight:normal;font-stretch:normal;font-family:'Michella Garden';-inkscape-font-specification:'Michella Garden';fill:#000000;fill-opacity:0.963768;stroke:none;stroke-width:0.264583"
         id="path873-2" />
    </g>
  </g>
</svg>
